<svg xmlns="http://www.w3.org/2000/svg" xmlns:xlink="http://www.w3.org/1999/xlink" viewBox="0 0 650 650"><defs><style>.cls-1{fill:url(#Безымянный_градиент_263);}.cls-2{fill:url(#Безымянный_градиент_5);}.cls-18,.cls-3,.cls-30,.cls-40,.cls-48,.cls-5,.cls-52,.cls-54{fill:none;stroke-miterlimit:10;}.cls-3{stroke-width:0.93px;stroke:url(#Безымянный_градиент_10);}.cls-4{fill:url(#Безымянный_градиент_17);}.cls-5{stroke-width:2.67px;stroke:url(#Безымянный_градиент_164);}.cls-6{fill:url(#Безымянный_градиент_5-2);}.cls-7{fill:url(#Безымянный_градиент_5-3);}.cls-8{fill:url(#Безымянный_градиент_5-4);}.cls-9{fill:url(#Безымянный_градиент_5-5);}.cls-10{fill:url(#Безымянный_градиент_5-6);}.cls-11{fill:url(#Безымянный_градиент_5-7);}.cls-12{fill:url(#Безымянный_градиент_18);}.cls-13{fill:url(#Безымянный_градиент_33);}.cls-14{fill:url(#Безымянный_градиент_33-2);}.cls-15{fill:url(#Безымянный_градиент_33-3);}.cls-16{fill:url(#Безымянный_градиент_17-2);}.cls-17{fill:url(#Безымянный_градиент_33-4);}.cls-18{stroke-width:1.55px;stroke:url(#Безымянный_градиент_33-5);}.cls-19{fill:url(#Безымянный_градиент_33-6);}.cls-20{fill:url(#Безымянный_градиент_17-3);}.cls-21{fill:url(#Безымянный_градиент_33-7);}.cls-22{fill:url(#Безымянный_градиент_11);}.cls-23{fill:url(#Безымянный_градиент_16);}.cls-24{fill:url(#Безымянный_градиент_170);}.cls-25{fill:#fff;}.cls-26{fill:url(#Безымянный_градиент_170-2);}.cls-27{fill:url(#Безымянный_градиент_105);}.cls-28{fill:#d5a081;}.cls-29{fill:#191337;}.cls-30{stroke:#f3f6fd;}.cls-30,.cls-48{stroke-linecap:round;}.cls-31{fill:url(#Безымянный_градиент_170-3);}.cls-32{fill:url(#Безымянный_градиент_170-4);}.cls-33{fill:url(#Безымянный_градиент_216);}.cls-34{fill:url(#Безымянный_градиент_40);}.cls-35{fill:url(#Безымянный_градиент_105-2);}.cls-36{fill:url(#Безымянный_градиент_250);}.cls-37{fill:url(#Безымянный_градиент_100);}.cls-38{fill:url(#Безымянный_градиент_271);}.cls-39{fill:#1f1844;}.cls-40{stroke:#17ff44;stroke-width:1.95px;}.cls-41{fill:url(#Безымянный_градиент_100-2);}.cls-42{fill:url(#Безымянный_градиент_61);}.cls-43{fill:url(#Безымянный_градиент_16-2);}.cls-44{fill:url(#Безымянный_градиент_16-3);}.cls-45{fill:url(#Безымянный_градиент_250-2);}.cls-46{fill:url(#Безымянный_градиент_40-2);}.cls-47{fill:url(#Безымянный_градиент_269);}.cls-48,.cls-54{stroke:#fff;}.cls-49{fill:url(#Безымянный_градиент_107);}.cls-50{fill:#c68f6c;}.cls-51{fill:url(#Безымянный_градиент_100-3);}.cls-52{stroke:#d6d9e8;stroke-width:5.49px;}.cls-53{fill:url(#Безымянный_градиент_269-2);}.cls-54{stroke-width:0.76px;}</style><linearGradient id="Безымянный_градиент_263" x1="11.75" y1="307.52" x2="638.25" y2="307.52" gradientUnits="userSpaceOnUse"><stop offset="0" stop-color="#f0f2f5"/><stop offset="0.99" stop-color="#f5f7f8"/></linearGradient><linearGradient id="Безымянный_градиент_5" x1="98.02" y1="464.86" x2="73.48" y2="278.68" gradientUnits="userSpaceOnUse"><stop offset="0" stop-color="#1f1844"/><stop offset="0.99" stop-color="#3d3c99"/></linearGradient><linearGradient id="Безымянный_градиент_10" x1="96.78" y1="460.07" x2="75.2" y2="296.3" gradientUnits="userSpaceOnUse"><stop offset="0" stop-color="#3f3d9e"/><stop offset="0.99" stop-color="#423e9f"/></linearGradient><linearGradient id="Безымянный_градиент_17" x1="109.36" y1="396.38" x2="200.41" y2="375.46" gradientUnits="userSpaceOnUse"><stop offset="0.01" stop-color="#bbc0d9"/><stop offset="1" stop-color="#d6dbf8"/></linearGradient><linearGradient id="Безымянный_градиент_164" x1="406.71" y1="-186.78" x2="476.37" y2="-174.03" gradientTransform="translate(-254.54 668.33) rotate(-10.18)" gradientUnits="userSpaceOnUse"><stop offset="0" stop-color="#bac6d8"/><stop offset="0.99" stop-color="#d6dbf8"/></linearGradient><linearGradient id="Безымянный_градиент_5-2" x1="96.29" y1="400.19" x2="68.37" y2="372.76" xlink:href="#Безымянный_градиент_5"/><linearGradient id="Безымянный_градиент_5-3" x1="95.4" y1="423.25" x2="62.91" y2="411.94" xlink:href="#Безымянный_градиент_5"/><linearGradient id="Безымянный_градиент_5-4" x1="97.82" y1="400.12" x2="127.37" y2="376.87" xlink:href="#Безымянный_градиент_5"/><linearGradient id="Безымянный_градиент_5-5" x1="95.67" y1="423.29" x2="124.35" y2="409.55" xlink:href="#Безымянный_градиент_5"/><linearGradient id="Безымянный_градиент_5-6" x1="100.79" y1="444.87" x2="62.61" y2="440.31" xlink:href="#Безымянный_градиент_5"/><linearGradient id="Безымянный_градиент_5-7" x1="96.55" y1="447.55" x2="122.64" y2="431.61" xlink:href="#Безымянный_градиент_5"/><linearGradient id="Безымянный_градиент_18" x1="106.33" y1="339.98" x2="97.41" y2="376.48" gradientUnits="userSpaceOnUse"><stop offset="0.01" stop-color="#3d3c99"/><stop offset="1" stop-color="#1f1844"/></linearGradient><linearGradient id="Безымянный_градиент_33" x1="1984.87" y1="-1512.36" x2="1996.66" y2="-1512.36" gradientTransform="translate(-239.73 2866.29) rotate(-45.37)" gradientUnits="userSpaceOnUse"><stop offset="0" stop-color="#e0e4eb"/><stop offset="0.99" stop-color="#f3f6fd"/></linearGradient><linearGradient id="Безымянный_градиент_33-2" x1="3544.99" y1="-1661.32" x2="3556.89" y2="-1661.32" gradientTransform="translate(576.3 4307.69) rotate(-72.22)" xlink:href="#Безымянный_градиент_33"/><linearGradient id="Безымянный_градиент_33-3" x1="210.67" y1="3366.77" x2="222.48" y2="3366.77" gradientTransform="matrix(0.63, 0.78, -0.78, 0.63, 2589.91, -1904.81)" xlink:href="#Безымянный_градиент_33"/><linearGradient id="Безымянный_градиент_17-2" x1="112.82" y1="422.07" x2="125.12" y2="409.44" xlink:href="#Безымянный_градиент_17"/><linearGradient id="Безымянный_градиент_33-4" x1="510.91" y1="4137.58" x2="523" y2="4137.58" gradientTransform="matrix(0.5, 0.87, -0.77, 0.45, 3034.72, -1879.73)" xlink:href="#Безымянный_градиент_33"/><linearGradient id="Безымянный_градиент_33-5" x1="502.62" y1="-337.21" x2="520" y2="-337.21" gradientTransform="translate(-316.91 863.99) rotate(-13.38)" xlink:href="#Безымянный_градиент_33"/><linearGradient id="Безымянный_градиент_33-6" x1="4569.35" y1="-1435.34" x2="4581.71" y2="-1435.34" gradientTransform="matrix(0.04, -0.93, 1, 0.04, 1340.68, 4765.76)" xlink:href="#Безымянный_градиент_33"/><linearGradient id="Безымянный_градиент_17-3" x1="113.09" y1="441.89" x2="125.38" y2="428.27" xlink:href="#Безымянный_градиент_17"/><linearGradient id="Безымянный_градиент_33-7" x1="957.15" y1="5042.52" x2="970.53" y2="5042.52" gradientTransform="matrix(0.35, 0.94, -0.74, 0.28, 3516.42, -1860.94)" xlink:href="#Безымянный_градиент_33"/><linearGradient id="Безымянный_градиент_11" x1="108.25" y1="339.46" x2="99.32" y2="375.96" gradientUnits="userSpaceOnUse"><stop offset="0" stop-color="#e6eaf1"/><stop offset="0.99" stop-color="#f3f6fd"/></linearGradient><linearGradient id="Безымянный_градиент_16" x1="71.76" y1="499.61" x2="139.77" y2="483.98" gradientUnits="userSpaceOnUse"><stop offset="0.11" stop-color="#8988d5"/><stop offset="0.56" stop-color="#9d9ce8"/><stop offset="1" stop-color="#a7a5ee"/></linearGradient><linearGradient id="Безымянный_градиент_170" x1="91.76" y1="182.7" x2="407.05" y2="182.7" gradientUnits="userSpaceOnUse"><stop offset="0.01" stop-color="#bbbfd9"/><stop offset="1" stop-color="#d6dbf8"/></linearGradient><linearGradient id="Безымянный_градиент_170-2" x1="419.85" y1="443.05" x2="446.26" y2="443.05" xlink:href="#Безымянный_градиент_170"/><linearGradient id="Безымянный_градиент_105" x1="445.6" y1="482.82" x2="433.26" y2="461.15" gradientUnits="userSpaceOnUse"><stop offset="0" stop-color="#ffd0b9"/><stop offset="0.04" stop-color="#facab2"/><stop offset="0.35" stop-color="#d7a384"/><stop offset="0.62" stop-color="#be8662"/><stop offset="0.85" stop-color="#af744d"/><stop offset="1" stop-color="#a96e46"/></linearGradient><linearGradient id="Безымянный_градиент_170-3" x1="517.73" y1="437.4" x2="544.59" y2="437.4" xlink:href="#Безымянный_градиент_170"/><linearGradient id="Безымянный_градиент_170-4" x1="481.26" y1="444.89" x2="506.2" y2="444.89" xlink:href="#Безымянный_градиент_170"/><linearGradient id="Безымянный_градиент_216" x1="482.69" y1="388.06" x2="482.69" y2="223.03" gradientUnits="userSpaceOnUse"><stop offset="0" stop-color="#201f4f"/><stop offset="0.39" stop-color="#3d3c99"/><stop offset="1" stop-color="#403da0"/></linearGradient><linearGradient id="Безымянный_градиент_40" x1="534.52" y1="309.1" x2="549.52" y2="310.6" gradientUnits="userSpaceOnUse"><stop offset="0.11" stop-color="#343381"/><stop offset="0.56" stop-color="#3d3c99"/><stop offset="1" stop-color="#403da0"/></linearGradient><linearGradient id="Безымянный_градиент_105-2" x1="340.4" y1="505.93" x2="355.98" y2="476.88" xlink:href="#Безымянный_градиент_105"/><linearGradient id="Безымянный_градиент_250" x1="494.3" y1="252.74" x2="638.67" y2="252.74" gradientUnits="userSpaceOnUse"><stop offset="0" stop-color="#a7a5ee"/><stop offset="0.44" stop-color="#9d9ce8"/><stop offset="0.89" stop-color="#8988d5"/></linearGradient><linearGradient id="Безымянный_градиент_100" x1="455.63" y1="264.55" x2="542.3" y2="220.55" gradientUnits="userSpaceOnUse"><stop offset="0" stop-color="#a96e46"/><stop offset="0.15" stop-color="#af744d"/><stop offset="0.38" stop-color="#be8662"/><stop offset="0.65" stop-color="#d7a384"/><stop offset="0.96" stop-color="#facab2"/><stop offset="1" stop-color="#ffd0b9"/></linearGradient><linearGradient id="Безымянный_градиент_271" x1="274.15" y1="281.59" x2="408.69" y2="281.59" gradientUnits="userSpaceOnUse"><stop offset="0.01" stop-color="#bbbfd9"/><stop offset="0.29" stop-color="#cacde2"/><stop offset="0.84" stop-color="#f2f3f8"/><stop offset="1" stop-color="#fff"/></linearGradient><linearGradient id="Безымянный_градиент_100-2" x1="420.97" y1="196.27" x2="507.63" y2="152.27" xlink:href="#Безымянный_градиент_100"/><linearGradient id="Безымянный_градиент_61" x1="443.53" y1="154.48" x2="474.39" y2="134.54" gradientUnits="userSpaceOnUse"><stop offset="0" stop-color="#ffd0b9" stop-opacity="0"/><stop offset="1" stop-color="#a96e46"/></linearGradient><linearGradient id="Безымянный_градиент_16-2" x1="569.66" y1="425.55" x2="587.68" y2="425.55" xlink:href="#Безымянный_градиент_16"/><linearGradient id="Безымянный_градиент_16-3" x1="261.32" y1="425.55" x2="278.16" y2="425.55" xlink:href="#Безымянный_градиент_16"/><linearGradient id="Безымянный_градиент_250-2" x1="428.49" y1="309.81" x2="522.89" y2="309.81" xlink:href="#Безымянный_градиент_250"/><linearGradient id="Безымянный_градиент_40-2" x1="424.41" y1="336.42" x2="424.41" y2="319.37" xlink:href="#Безымянный_градиент_40"/><linearGradient id="Безымянный_градиент_269" x1="390.36" y1="308.22" x2="422.76" y2="265.85" gradientUnits="userSpaceOnUse"><stop offset="0" stop-color="#fff"/><stop offset="0.16" stop-color="#f2f3f8"/><stop offset="0.71" stop-color="#cacde2"/><stop offset="0.99" stop-color="#bbbfd9"/></linearGradient><linearGradient id="Безымянный_градиент_107" x1="486.31" y1="182.46" x2="459.31" y2="208.96" gradientUnits="userSpaceOnUse"><stop offset="0" stop-color="#a96e46"/><stop offset="1" stop-color="#ffd0b9" stop-opacity="0"/></linearGradient><linearGradient id="Безымянный_градиент_100-3" x1="476.31" y1="305.27" x2="562.97" y2="261.27" xlink:href="#Безымянный_градиент_100"/><linearGradient id="Безымянный_градиент_269-2" x1="454.63" y1="301.18" x2="482.7" y2="301.18" xlink:href="#Безымянный_градиент_269"/></defs><title>1</title><g id="Слой_2" data-name="Слой 2"><path class="cls-1" d="M616.86,320C561.84,207.53,404.48,42.8,200,42.37c-213.36-.44-234,211.17-119,270S27.87,444.5,148.07,518.17c121.66,74.56,381.67,67.56,445.67,9.56S640.63,368.6,616.86,320Z"/><path class="cls-2" d="M98.29,466.19s27-30.06,24.14-41.91,13.89-26.24,14.22-43.5c.37-19.55-10.07-14.32-13.69-22.68-5.36-12.39,6.57-23.36-11.46-28.1-12.31-3.24-21,3.08-19.84-12.15s-4.39-34.08-14.25-40.92c-14.09-9.78-42.76-10.54-33.1,9.16,10.15,20.71,1.2,54.81-1.16,64.15C18.16,448.94,98.29,466.19,98.29,466.19Z"/><path class="cls-3" d="M68.16,297.23c3.09,25.48,35,66.2,20.57,93.41S96.2,460,96.2,460"/><path class="cls-4" d="M180.14,409.26c-17.54,6.2,1.45,28.89-17.73,39.11s-43.77,15.4-44.9,10.44c-.08-.33-1.11-3.62-2.2-8.43-.25-1.11-.5-2.31-.75-3.57-.06-.35-.13-.71-.2-1.07a97.08,97.08,0,0,1-1.45-11.61c0-.12,0-.24,0-.36-.09-1.55-.12-3.11-.09-4.66s.11-3,.27-4.43c.57-5.52,2.15-10.61,5.38-14.26a15.27,15.27,0,0,1,2.8-2.51c13.33-9.27,18.65-4.77,18.55-18.47-.18-23.48,6.51-27,14.38-24.67s14,3,15.17-5.71-6-47.36,11.92-47.29c31,.1,15.31,39.62,12.18,46-7.5,15.37,8.1,17.78,11.81,29S197.67,403.06,180.14,409.26Z"/><path class="cls-5" d="M114.07,492.55s-4.71-43.22,28.23-67.44c14.88-10.94,42.54-50,40-92.28"/><path class="cls-6" d="M67.89,372.34C72,365.4,101.4,394,96.25,400.3S64,378.95,67.89,372.34Z"/><path class="cls-7" d="M60.47,411.37c.59-8.08,36.1,3.54,34.28,11.52S59.91,419.07,60.47,411.37Z"/><path class="cls-8" d="M127.51,375.71c6.29,4.93-24.76,31.67-30.3,25.74S121.51,371,127.51,375.71Z"/><path class="cls-9" d="M124.25,409.4c5.29,6-24.7,21-29.2,14.23S119.21,403.71,124.25,409.4Z"/><path class="cls-10" d="M62.83,440.42c-1.55-7.42,37.59-3.15,37.93,4.49S64.31,447.48,62.83,440.42Z"/><path class="cls-11" d="M122.34,431.78c4.06,6.86-24,24-27.25,16.51S118.48,425.24,122.34,431.78Z"/><path class="cls-12" d="M106.87,339c7.9.58-2.32,40.39-10.13,38.55S99.34,338.42,106.87,339Z"/><path class="cls-13" d="M70.86,370.45c4.09-6.94,33.51,21.68,28.36,28S67,377.06,70.86,370.45Z"/><path class="cls-14" d="M62.83,409.71c.59-8.08,36.1,3.54,34.28,11.52S62.27,417.41,62.83,409.71Z"/><path class="cls-15" d="M128.7,373.93c6.29,4.93-24.76,31.67-30.3,25.74S122.71,369.24,128.7,373.93Z"/><path class="cls-16" d="M113.72,423.14c.55-5.42,2.06-10.42,5.17-14,3.75-.75,6.9-.6,8.28,1C130.1,413.41,122.14,419.53,113.72,423.14Z"/><path class="cls-17" d="M125.73,408.13c5.29,6-24.7,21-29.2,14.23S120.7,402.44,125.73,408.13Z"/><path class="cls-18" d="M98.85,368.13s.9,20.68-1.84,38.73,4.17,48.6,15.42,58.36"/><path class="cls-19" d="M62.83,439c-1.55-7.42,37.59-3.15,37.93,4.49S64.31,446.07,62.83,439Z"/><path class="cls-20" d="M115.15,444.88c-.06-.34-.12-.7-.19-1.05a97.42,97.42,0,0,1-1.39-11.4c0-.12,0-.24,0-.35,6.39-3.54,13.21-5.32,15-2.26C130.84,433.66,123,440.73,115.15,444.88Z"/><path class="cls-21" d="M127.13,426.88c4.06,6.86-24,24-27.25,16.51S123.27,420.34,127.13,426.88Z"/><path class="cls-22" d="M108.79,338.45c7.9.58-2.32,40.39-10.13,38.55S101.26,337.9,108.79,338.45Z"/><path class="cls-23" d="M115.57,529.48H91.24a21.91,21.91,0,0,1-21.71-19l-6-44.78a5.06,5.06,0,0,1,5-5.73h69.8a5.06,5.06,0,0,1,5,5.73l-6,44.78A21.91,21.91,0,0,1,115.57,529.48Z"/><rect class="cls-24" x="91.76" y="74.45" width="315.29" height="216.5" rx="11.45" ry="11.45"/><rect class="cls-25" x="100.73" y="83.74" width="297.35" height="197.93" rx="6.84" ry="6.84"/><path class="cls-26" d="M426,500a6.11,6.11,0,0,1-6-7l14.41-106.86,11.94,1.35L432,494.73C431.57,497.74,426,500,426,500Z"/><polygon class="cls-27" points="421.99 467.35 427.32 477.02 439.15 484.68 444.12 484.02 450.82 469.02 448.82 462.18 440.32 458.18 421.99 467.35"/><path class="cls-28" d="M488.16,161c.91-2.82,1.43-10.24,1.91-12.56-3.75.51-7,6.11-7,9.5C484,157.85,487.1,160.32,488.16,161Z"/><path class="cls-29" d="M437.31,337.92c-10,1.7-38.69,6.66-46.17,16-5.76,7.2-10,28.31-20.09,53.09-2.93-7.36-6.65-20.71-8.51-27.7-2.59-9.74-5-31.45,17.12-37.08C394.27,338.51,426.28,337.2,437.31,337.92Z"/><path class="cls-30" d="M419.85,337.23s-24.64,2.49-35.78,16.08c-8.75,10.68-16.62,43.19-16.62,43.19"/><path class="cls-31" d="M532.51,492.12,517.73,383.23l10-4L544.49,490c.69,3.94-2.34,4.66-5.33,5.2S533.21,496.14,532.51,492.12Z"/><path class="cls-32" d="M493.9,505.17,481.26,381H493.6l12.57,123.25c.28,3.83-2.64,3.68-5.52,4.11C497.45,508.88,494.21,509.5,493.9,505.17Z"/><path class="cls-33" d="M539.69,366.58c-2.61,19.29-31,22-64,23.07-1,.5-37.46.28-54.44-5.44l.59-130.62c0-11,4.71-29.23,20.81-29.5,27-.45,77.15-4.57,96.78,1.5,4.49,16.12,7.76,33.92.28,80.48C535.42,332.71,541,357.32,539.69,366.58Z"/><path class="cls-34" d="M532.25,233.69c6,18,5.24,28.4-2.75,57.47-13.31,48.45,8.54,73.32-37.63,97.75,28-1.6,45.6-5.91,47.82-22.33,1.26-9.26-4.27-33.87,0-60.52,5.51-34.29,15.79-62.31,2.12-78.87C538,222.61,530.24,227.61,532.25,233.69Z"/><path class="cls-35" d="M366.16,482.42c-7.81-2.89-18.25-9-18.25-9s-13,14-14.45,15.37c4.81,1.9,2.39,15.8,6.37,18s14.51-7.32,19.58-6.16C359.86,496.17,364.79,484.84,366.16,482.42Z"/><path class="cls-29" d="M443,459.85,422,470c-2.61-2-4-6.8-5.83-9.64-3.3-5.11-6.83-4.33-12.32-12.36l-13.7-23.34L419,380.78l18.62,50.57c1.6,4.11,1,15.38,1,15.38C440.09,450.07,446.34,458.54,443,459.85Z"/><path class="cls-36" d="M539.7,273.3c-7.05,1.19-28.81,4.09-35.62,1.06.71,6.74,1.44,18.69,1.44,18.69s-58.16-5.55-80,2.77c0-.71,0-1.55.05-2.47.27-7.78,1.55-21.8,1.55-21.8s-10.53-2-13.64-5.17a3.65,3.65,0,0,1-.54-.68c.48-4,5.3-20.75,14.18-34.47,7.49-11.57,18.14-16.83,37.37-19.56L490,209.9s25.33-2.68,37,10.08S539.7,273.3,539.7,273.3Z"/><path class="cls-37" d="M427.15,271.55s0,12.24,1.06,21c-20.13,9.07-24.43,16.27-24.17,17.75l-4.29-17.63,8.43-.91,5.33-25.37C416.62,269.53,427.15,271.55,427.15,271.55Z"/><path class="cls-38" d="M401.63,319.16H315.15L299.3,251a5.7,5.7,0,0,1,5.56-7h80.84Z"/><path class="cls-39" d="M516.14,336.1s10.64,28.3-23.18,40.18c-21.87,7.68-63,6.1-63,6.1l-46.35,85.85a14.43,14.43,0,0,1-6.72,6.26l-1.29.58c-1.58,2.26-6.31,14-8.86,12.93l-24.3-11.37c-2.17-.89,3.24-8.75,4.28-10.85.72-1.46-.46-10.24.63-14.79,7.5-31.5,29.13-87.34,36.51-96.45,7.53-9.3,19-13.41,29-15.11,10.86-1.85,24.18-6.41,24.18-6.41Z"/><path class="cls-40" d="M426.54,334.74s-3.62-.45-9.27-.82"/><path class="cls-41" d="M475.45,223.3A13.39,13.39,0,0,1,460.88,216s-.5-.92-1.16-5l-.29-1.81-.27-1.67-.34-2a24.1,24.1,0,0,1-2.88.19c-7.55,0-19.89-3-25.28-14.43-3.77-8-1.75-16.09-2.38-21s-3.11-8.11-4.77-13.48c-2.12-6.87-.52-16.07,2.65-18.62,14.27-11.56,43.7-6.76,43.7-6.76s10,2.88,9,23.09c.88-.78-.46,3.65.83,3.2,2.7-.9,5.13-.8,6.93.24,4,2.25,4.92,8.94-.79,19.13-.06.12-.13.24-.2.36a44.29,44.29,0,0,0,.44,5.65c0,.28.07.57.11.87.46,3.46,1,7.94,1.63,12.27.84,6.25,1.8,11.6,2.14,13.68C490.78,214.95,486.07,221.58,475.45,223.3Z"/><path class="cls-42" d="M478.88,154.5c1-20.21-9-23.09-9-23.09s-29.43-4.8-43.7,6.76c-2.24,1.8-2.13,5.67-2.23,9,5.54-5.83,18.41-5.5,28.4-6.55,4.78-.5,3.33,4.88,4.69,4.94,10.3-3.32,18,1.05,18.08,16.21l4.5-4.06C478.52,157.85,479.74,153.75,478.88,154.5Z"/><path class="cls-43" d="M583,517.87h-8.64c-2.59,0-4.69-1.41-4.69-3.16V333.24h18V514.71C587.68,516.45,585.58,517.87,583,517.87Z"/><path class="cls-44" d="M275.37,517.87H264.11c-1.54,0-2.79-.9-2.79-2V333.24h16.84V515.86C278.16,517,276.91,517.87,275.37,517.87Z"/><polygon class="cls-45" points="513.16 328.46 428.49 319.16 428.49 291.16 522.89 299.05 513.16 328.46"/><path class="cls-46" d="M261.61,319h325.6a10.45,10.45,0,0,1,10.45,10.45v8.47a0,0,0,0,1,0,0H251.16a0,0,0,0,1,0,0v-8.47A10.45,10.45,0,0,1,261.61,319Z"/><path class="cls-47" d="M438.21,314.91l-.91,4.06H401.63l-18.68-71.39a2.84,2.84,0,0,1,2.74-3.55h0a2.84,2.84,0,0,1,2.76,2.17l11.3,46.47L404,310.29v0a1.45,1.45,0,0,0,0,.17l0,.06h30.6A3.59,3.59,0,0,1,438.21,314.91Z"/><circle class="cls-25" cx="346.66" cy="283.4" r="7.26"/><line class="cls-48" x1="504.13" y1="274" x2="501.76" y2="260.3"/><line class="cls-48" x1="427.15" y1="271.55" x2="429.26" y2="260.3"/><path class="cls-39" d="M490.49,147.29c.14-3.54-.54-7.28-1.71-12.37-2.52-11-9.89-15.57-21.42-17.64l-11-1.28c-1-.12-19.44-1.46-28,3.59-3.22,1.89-7.45,6.5-7.4,9.57.13,7.84,0,12,1.78,18,3.76-16.05,12.3,2.74,32.41-13.62,3.73-3,3.33,4.88,4.69,4.94,11.63-3.75,19.9,2.29,17.75,22.57,3-1.79,5-3.64,6.79-3.88C486.64,154.29,490.42,149.15,490.49,147.29Z"/><path class="cls-49" d="M486.2,184a43.92,43.92,0,0,1-26.77,25.28l-.27-1.67-.34-2a24.1,24.1,0,0,1-2.88.19c5.9-5.08,22.31-19.44,29.91-28.63-.06.12-.13.24-.2.36a44.29,44.29,0,0,0,.44,5.65C486.13,183.36,486.16,183.65,486.2,184Z"/><path class="cls-39" d="M479.6,160.14c.36-.41,1.48-1.42,1.48-1.42l-.86-3.74-5.28,3.52a3.21,3.21,0,0,0-1.4,3.09l1.77,13.29c-7.32,4.49-24,17.39-27.16,17.91-4,.67-5.34-4.33-7.5-3.17s-1.84,4.17-3.34,4.17c-.78,0-5.89-3.2-7.57-5.35,0,0,2.6,8.48,3.16,10,1.29,3.45,8.82,10.43,8.82,10.43a3.53,3.53,0,0,0,2.94,1l9.45-1.14,4.75-2.95c6.62-3.81,21.94-18.81,22-20.86C481.2,172.93,476,164.21,479.6,160.14Z"/><path class="cls-50" d="M481.26,163.86s2.13-4,4.38-1.5,0,7.63,0,7.63Z"/><path class="cls-51" d="M538,273.6c-.09,8.57-.72,28-4.39,36.3-4.78,10.81-11.33,10.67-29.23,7.66s-47.54-13.67-56.76-13.67-15,6.67-15,6.67H403.9c-.26-1.48-.15-9.1,21.7-17.22,3.66-1.55,14.21-2.83,23.35-3.49,25.1-1.81,56,2.77,56,2.77s-.12-11.53-.83-18.27C510.84,277.37,531.8,274.54,538,273.6Z"/><path class="cls-52" d="M479.49,294.28s9.14-.75,9.14,6.91-9.14,7.74-9.14,7.74"/><path class="cls-53" d="M480.57,319H457.83l-3.19-32.35a3,3,0,0,1,3.12-3.21h21.8a3,3,0,0,1,3.13,3.12Z"/><path class="cls-48" d="M457.41,219.15s1.42,9,16.92,8.17,20.21-13,20.21-13"/><path class="cls-29" d="M304.42,494.54s-9.48-2.09-13.11-.79-4.56,4-4.82,6.89,2.79,7,14.57,11.36a356.38,356.38,0,0,0,36.82,10.93c3.86.78,10.4,1.94,16,1.62a7.28,7.28,0,0,0,6.55-5.55,19.9,19.9,0,0,1,1.16-3.36c1-2,.62-4.36,1.2-6s2-13-1.2-14.64-8.36,8.07-15.44,7.27-7.87-9.66-7.87-9.66,3.38-3.09,1.56-5.26.27-3.89-1.17-4.75-6.52,2.17-6.52,2.17-16.35,6.72-22.76,9.43C308.08,494.7,304.42,494.54,304.42,494.54Z"/><path class="cls-48" d="M290.74,503c21,12,45.42,12.25,45.42,12.25,6.83,1.59,13.65,6.13,22.41.92l.77-.42"/><path class="cls-29" d="M423,471.53s12.13,3.65,14.5,7.6,10.47-8.1,6.9-14.91,1.3-5.7,4.65-2.93,6.06.76,8.4,2.75,7.15,6.4,3.64,14.68-11.37,11.84-14.49,18.05-2,18.86-6.79,23.59-13.89,10.78-24.21,5.73-1.1-18.86,1.3-22.3,2.87-15.2,3-20S419.24,473,423,471.53Z"/><path class="cls-54" d="M448.77,462.79s6.79,2.06,4.44,10.36-10.93,14.65-11.81,23.42-.8,16.56-9.29,22.92-12.2,5.47-12.2,5.47"/></g></svg>