<svg xmlns="http://www.w3.org/2000/svg" xmlns:xlink="http://www.w3.org/1999/xlink" width="646" height="566" viewBox="0 0 646 566"><defs><style>.a,.i{fill:#fff;}.a{stroke:#707070;}.b{isolation:isolate;clip-path:url(#a);}.c,.d,.k,.l{fill:#170e5a;}.c{opacity:0.5;}.e,.j{fill:none;stroke:#535461;stroke-miterlimit:10;}.e{stroke-width:0.73px;}.f{opacity:0.1;}.g{fill:url(#b);}.h{fill:#535461;}.j{stroke-width:1.459px;}.k{opacity:0.7;}.l{opacity:0.8;}.m{fill:url(#c);}.n{fill:#fec3be;}.o{fill:#8b416f;}.p{fill:#4d4981;}.q{opacity:0.05;}.r{fill:#fd6f8d;}.s{fill:#784f69;}</style><clipPath id="a"><rect class="a" width="646" height="566" transform="translate(1024 218)"/></clipPath><linearGradient id="b" x1="0.5" y1="1" x2="0.5" gradientUnits="objectBoundingBox"><stop offset="0" stop-color="gray" stop-opacity="0.251"/><stop offset="0.54" stop-color="gray" stop-opacity="0.122"/><stop offset="1" stop-color="gray" stop-opacity="0.102"/></linearGradient><linearGradient id="c" y1="1" y2="0" xlink:href="#b"/></defs><g class="b" transform="translate(-1024 -218)"><g transform="translate(1024 311.903)"><path class="c" d="M250.32,389.485c-39.042-13.727-83.682-25.347-120.159-5.62-4.623,2.5-9.178,5.648-11.669,10.332-6.579,12.322,3.878,28.3-1.218,41.326s-24.279,19.582-22.709,33.5c.413,3.637,2.349,6.929,4.63,9.767,14.289,17.763,40.484,19.561,62.624,15.153s43.794-13.548,66.334-12.4c21.66,1.137,41.587,11.709,61.433,20.608,33.458,15.043,72.534,25.836,105.965,10.717,15.318-6.929,27.982-18.728,42.643-26.966A103.407,103.407,0,0,1,502.97,473.8c14.891,2.135,29.106,7.508,43.679,11.213,33.1,8.41,67.647,8.134,101.754,7.8,6.349-.062,12.8-.138,18.885-1.984,9.009-2.755,16.441-9.1,23.6-15.3,9.4-8.148,19.3-17.1,22.337-29.287,3.581-14.464-3.831-29.838-14.824-39.667s-25.044-15.2-38.758-20.381c-3.384-1.267-7-2.555-10.464-1.6a14.245,14.245,0,0,0-5.889,3.836c-9.734,9.533-17.958,25.657-31.231,23.067-4.738-.923-8.617-4.277-12.366-7.377-20.022-16.531-46.955-29.294-71.119-20.16-17.673,6.681-30.148,23.838-48.058,29.893-12.739,4.312-26.581,2.445-39.983,3.285-19.494,1.212-38.467,8.224-57.988,7.8-49.777-1.088-91.249-49.523-140.824-44.908-3.885.358-8.122,1.267-10.505,4.394" transform="translate(-90.079 -141.492)"/><path class="d" d="M193.918,341.428s-41.364,25.409,34.913,64.545c0,0,16.807-31.752-1.773-57.643a24.772,24.772,0,0,0-32.49-7.246Z" transform="translate(-96.451 -139.507)"/><path class="e" d="M195.322,341.079s35.414,27.551,34.426,65.055" transform="translate(-97.36 -139.688)"/><path class="d" d="M750.018,316.592C758.4,347.773,722.652,436.6,722.652,436.6s-75.214-57.947-83.6-89.127a59.276,59.276,0,0,1,13.922-57.609,56.868,56.868,0,0,1,56.234-15.656,58.077,58.077,0,0,1,40.8,42.373Z" transform="translate(-129.225 -135.837)"/><path class="f" d="M750.018,316.592C758.4,347.773,722.652,436.6,722.652,436.6s-75.214-57.947-83.6-89.127a59.276,59.276,0,0,1,13.922-57.609,56.868,56.868,0,0,1,56.234-15.656,58.077,58.077,0,0,1,40.8,42.373Z" transform="translate(-129.225 -135.837)"/><path class="e" d="M683.011,275.967s46.819,71.922,43.32,161.022" transform="translate(-132.573 -136.049)"/><path class="d" d="M768.8,379.413s-42.453-23.5-37.079,63.25c0,0,35.414-1.288,47.984-30.685a25.714,25.714,0,0,0-10.282-32.2Z" transform="translate(-136.056 -141.669)"/><path class="e" d="M769.529,379.745s-5.483,45.032-37.776,63.1" transform="translate(-136.092 -141.849)"/><path class="d" d="M100.944,369.127s-41.384,25.4,34.9,64.517c0,0,16.807-31.752-1.773-57.643a24.771,24.771,0,0,0-32.49-7.246Z" transform="translate(-89.737 -141.054)"/><path class="e" d="M102.327,368.78s35.414,27.551,34.426,65.055" transform="translate(-90.646 -141.237)"/><path class="g" d="M622.952,391.171H579.463a14.968,14.968,0,0,0,1.516-6.592V183.072a14.689,14.689,0,0,0-14.56-14.816H229.79a14.689,14.689,0,0,0-14.56,14.816V384.586a14.966,14.966,0,0,0,1.516,6.592H171.721a3.818,3.818,0,0,0-2.731,1.155,3.955,3.955,0,0,0-1.121,2.785v3.161A21.73,21.73,0,0,0,189.407,420.2H605.265A21.73,21.73,0,0,0,626.8,398.279v-3.161a3.955,3.955,0,0,0-1.118-2.789A3.818,3.818,0,0,0,622.952,391.171ZM354.984,403.706l-3.75-4.3h92.583l-4.129,4.312Z" transform="translate(-95.378 -130.029)"/><rect class="h" width="357.471" height="225.911" rx="16.969" transform="translate(123.974 41.078)"/><rect class="i" width="341.666" height="184.557" transform="translate(131.501 74.009)"/><ellipse class="i" cx="3.012" cy="3.065" rx="3.012" ry="3.065" transform="translate(299.325 54.861)"/><path class="h" d="M450.869,402.04l-11.737,12.253H356.377L345.771,402.04H177.236a3.8,3.8,0,0,0-3.763,3.83v3.086a21.238,21.238,0,0,0,21.051,21.421H600.959a21.238,21.238,0,0,0,21.051-21.421V405.87a3.8,3.8,0,0,0-3.763-3.83Z" transform="translate(-95.783 -143.096)"/><path class="j" d="M188.785,90.6V247.588H443.9" transform="translate(-13.633 -5.105)"/><rect class="c" width="26.337" height="41.354" transform="translate(197.726 195.006)"/><rect class="k" width="26.337" height="78.114" transform="translate(242.88 158.246)"/><rect class="c" width="26.337" height="55.901" transform="translate(288.035 180.452)"/><rect class="l" width="26.337" height="90.367" transform="translate(333.189 145.992)"/><rect class="d" width="26.337" height="122.526" transform="translate(378.343 113.827)"/><path class="j" d="M226.9,175.7l45.906-42.119L317.964,173.4l44.4-48.242,45.154-19.148" transform="translate(-16.385 -5.966)"/><ellipse class="d" cx="5.266" cy="5.359" rx="5.266" ry="5.359" transform="translate(205.253 164.376)"/><ellipse class="d" cx="5.266" cy="5.359" rx="5.266" ry="5.359" transform="translate(295.562 161.311)"/><ellipse class="d" cx="5.266" cy="5.359" rx="5.266" ry="5.359" transform="translate(341.467 113.834)"/><ellipse class="d" cx="5.266" cy="5.359" rx="5.266" ry="5.359" transform="translate(251.159 121.486)"/><ellipse class="d" cx="5.266" cy="5.359" rx="5.266" ry="5.359" transform="translate(385.87 94.686)"/><path class="m" d="M710.482,393.419c-2.775-.93-6.891-2-10.153-1.626-3.107-1.15-10.41-4.133-15.4-8.623a115,115,0,0,0-.332-13.238c-2.552-29.528,3.188-48.992,3.188-48.992s4.508-14.85,4.014-27.172c.291.558.453.889.453.889.393-10.628,3.953-21.627,6.62-28.481a2.222,2.222,0,0,0,.3-.11l2.978-7.191a6.3,6.3,0,0,0,.562-1.329l.481-1.136-.142-.062c.047-.186.095-.386.142-.585h0c1.9-8.19,3.384-27.613,3.384-27.613,5.1-20.443-7.012-33.061-7.012-33.061l-20.563-18a2.69,2.69,0,0,1,.2.737l-.169-.152c-.291-.847-.609-1.86-.92-3.017a15.717,15.717,0,0,0,2.031-1.77,16.145,16.145,0,0,0,4.609-8.369,32.289,32.289,0,0,0,.3-7.576l-.338-8.685a28.025,28.025,0,0,0-.508-5.062c-1.55-6.888-8.488-11.709-15.453-12.026a55.516,55.516,0,0,0-6.633.358,43.857,43.857,0,0,1-5.415.117.962.962,0,0,1-.582-.158.875.875,0,0,1-.25-.6,3.023,3.023,0,0,1,.717-2.239,2.7,2.7,0,0,1,.934-.544l-.494.117a2.693,2.693,0,0,1,.812-.448,15.592,15.592,0,0,0-5.131,1.894,6.653,6.653,0,0,0-1.2,1.026,5.352,5.352,0,0,0-1.733,3.279,6.108,6.108,0,0,1-1.828-2.755,2.8,2.8,0,0,1,0-1.336q-.183.227-.352.468V130.2A14.027,14.027,0,0,0,644.9,135.8a2.21,2.21,0,0,1-.487-1.612q-.152.486-.284.971a2.285,2.285,0,0,1,0-.647,22.545,22.545,0,0,0-1.063,7.7c0,2.6,1.137,6.66,3.878,7.577a4.456,4.456,0,0,0,.433.117,17.782,17.782,0,0,0-1.273,16.556,17.264,17.264,0,0,0,12.881,10.2q.068.475.129,1h.108c.074.689.135,1.446.176,2.218a14.716,14.716,0,0,1-2.261,1.846,18.421,18.421,0,0,1-7.527,2.535,22.121,22.121,0,0,0-9.05,2.755c-3.283,1.867-6.9,4.587-8.041,7.893-1.9,5.51-12.333,14.085-19.332,15.153l-2.491-.145-.183-.055v.048l-.609-.034h-.2v.034l-.629-.034s-.061.3-.149.82c-3.52-1.233-11-4.649-20.733-13.638-10.83-10.008-25.484-8.038-31.136-6.778a.978.978,0,0,0-.75.822.99.99,0,0,0,.492,1c2.281,1.274,5.814,3.127,7.446,3.334,0,0-3.384,3.6.217,5.51a2.576,2.576,0,0,0,2.708-.269c1.746-1.3,6.6,1.646,13.632,3.182,0,0,19.846,20.9,29.7,24.107a14.479,14.479,0,0,0,.751,1.329l.609-.048v.048h.257l.074.689s15.324-.82,20.306-6.481a8.066,8.066,0,0,0,.968-1.054l-5.327,68.189h.047l-.047.647h3.919A152.931,152.931,0,0,1,631,316.4v44.453s-.2,3.912,7.784,9.643a299.276,299.276,0,0,1,24.178,19.072l.968.854c-1.469,13.6-4.542,38.957-7.107,39.9l1.584.282c-2.708,3.492-10.4,13.087-12.739,13.342-2.87.324-4.786,4.87,0,5.841a52.749,52.749,0,0,0,28.429-2.852,4.426,4.426,0,0,0,2.708-4.7l-.927-7.163a1,1,0,0,1,.406.434c.636,1.949,0-2.6,0-2.6a206,206,0,0,0,6.166-26.173l9.476,8.334s.19-.241.521-.689c2.322,5.359,6.464,16.324,5.537,24.355-1.273,11.02,10.83,1.295,9.564-5.193-1.029-5.248,3.574-27.5,5.368-35.816a3.707,3.707,0,0,0-2.437-4.312Z" transform="translate(-123.424 -127.766)"/><path class="n" d="M611.572,217.215s-9.029-1.584-22.418-13.941c-10.593-9.774-24.882-7.852-30.392-6.619a.951.951,0,0,0-.733.8.962.962,0,0,0,.482.977c2.227,1.24,5.679,3.051,7.3,3.258,0,0-3.337,3.513.21,5.393a2.515,2.515,0,0,0,2.667-.262c1.706-1.267,6.444,1.612,13.314,3.106,0,0,26.777,28.2,33,23.418Z" transform="translate(-123.548 -131.559)"/><path class="n" d="M665.429,177.079s2.491,10.772,0,18.376l11.209,1.584,9.964-5.069v-6.654a46.386,46.386,0,0,1-3.425-21.862Z" transform="translate(-131.303 -129.761)"/><path class="o" d="M699.638,424.081s8.123,16.159,6.85,26.931,10.586,1.267,9.341-5.069c-1.009-5.124,3.486-26.862,5.239-34.948a3.618,3.618,0,0,0-2.356-4.208c-3.743-1.254-10.011-2.79-13.158-.441C700.9,409.823,699.638,424.081,699.638,424.081Z" transform="translate(-133.773 -143.268)"/><path class="o" d="M665.173,443.94s-10.586,13.941-13.389,14.258-4.67,4.753,0,5.7a51.5,51.5,0,0,0,27.752-2.755,4.322,4.322,0,0,0,2.66-4.587l-1.787-13.569Z" transform="translate(-130.113 -145.384)"/><path class="p" d="M646.843,287.282l-10.153,1.378a153.847,153.847,0,0,1-.122,36.319v43.393s-.2,3.823,7.6,9.381a292.2,292.2,0,0,1,23.609,18.6l28.253,24.906s11.209-13.941,9.652-22.179c0,0-18.682-6.02-21.173-15.842-1.428-5.62-8.671-10.332-14.6-13.293a18.576,18.576,0,0,1-9.713-20.966,16.332,16.332,0,0,1,1.591-4.071c4.982-8.871,12.143-28.832,12.143-28.832l-13.7-26.573Z" transform="translate(-129.22 -136.682)"/><path class="q" d="M646.843,287.282l-10.153,1.378a153.847,153.847,0,0,1-.122,36.319v43.393s-.2,3.823,7.6,9.381a292.2,292.2,0,0,1,23.609,18.6l28.253,24.906s11.209-13.941,9.652-22.179c0,0-18.682-6.02-21.173-15.842-1.428-5.62-8.671-10.332-14.6-13.293a18.576,18.576,0,0,1-9.713-20.966,16.332,16.332,0,0,1,1.591-4.071c4.982-8.871,12.143-28.832,12.143-28.832l-13.7-26.573Z" transform="translate(-129.22 -136.682)"/><path class="p" d="M662.978,436.216s18.37,3.168,18.993,5.069,0-2.535,0-2.535,10.586-32.634,8.123-61.459,3.114-47.842,3.114-47.842,6.539-21.545,2.8-33.9-42.968-6.97-42.968-6.97,13.7,32.634,13.389,48.159c0,0,1.557,46.892,4.359,52.278C670.762,388.987,666.4,434.928,662.978,436.216Z" transform="translate(-130.409 -136.689)"/><path class="i" d="M663.924,186.611s1.868,11.709,20.55,6.654l-12.427,96.311s-36.118,1.267-35.807-3.168l7.446-58.291Z" transform="translate(-129.196 -131.055)"/><path class="f" d="M662.884,185.94a15.069,15.069,0,0,1-9,4.346,21.6,21.6,0,0,0-8.84,2.672c-3.2,1.825-6.769,4.477-7.852,7.707-2.18,6.337-15.88,16.792-22.107,14.574l2.18,19.01s17.748-.951,20.861-7.921l-5.286,67.837h4.67s2.491-18.376,4.359-22.178,5.6-24.713,5.916-29.783,4.982-34.218,9.03-39.26l6.092-15.05Z" transform="translate(-127.669 -131.017)"/><path class="f" d="M662.836,186.947a19.092,19.092,0,0,1-9.618,4.029,21.607,21.607,0,0,0-8.833,2.686c-3.2,1.825-6.769,4.477-7.852,7.707-2.18,6.337-15.879,16.792-22.107,14.574l2.18,19.01s17.748-.951,20.861-7.921l-5.293,67.8h4.67s2.491-18.376,4.359-22.179,5.6-24.713,5.916-29.783,4.982-34.218,9.029-39.26l6.687-14.767Z" transform="translate(-127.621 -131.074)"/><path class="r" d="M662.836,186.276a19.093,19.093,0,0,1-9.618,4.029,21.6,21.6,0,0,0-8.84,2.672c-3.2,1.825-6.769,4.477-7.852,7.707-2.179,6.337-15.88,16.792-22.107,14.574l2.18,19.01s17.748-.951,20.861-7.921l-5.286,67.837h4.67s2.491-18.376,4.359-22.178,5.6-24.713,5.916-29.783,4.982-34.218,9.029-39.26l6.694-14.733Z" transform="translate(-127.62 -131.036)"/><path class="f" d="M682.4,172.858c-.406-3,.406-4.877.778-8.4l-17.748,13.624s.426,1.839.751,4.532a16.637,16.637,0,0,0,2.708.22C675.048,182.839,679.481,177.942,682.4,172.858Z" transform="translate(-131.303 -129.817)"/><ellipse class="n" cx="16.814" cy="17.109" rx="16.814" ry="17.109" transform="translate(520.737 17.86)"/><path class="f" d="M649.342,146.224a22,22,0,0,1,1.354-8.465,2.141,2.141,0,0,0,.352,2.755,13.616,13.616,0,0,1,4.224-7.618c-1.2.2-1.814,1.708-1.516,2.907a6.612,6.612,0,0,0,2.078,2.975,5.333,5.333,0,0,1,2.565-4.5,15.224,15.224,0,0,1,5.009-1.846,2.957,2.957,0,0,0-1.922,3.031.854.854,0,0,0,.25.585.942.942,0,0,0,.569.152,42.827,42.827,0,0,0,5.259-.117,54.212,54.212,0,0,1,6.478-.351c6.769.289,13.571,4.994,15.088,11.709a27.385,27.385,0,0,1,.494,4.945l.332,8.479a31.53,31.53,0,0,1-.3,7.411,15.674,15.674,0,0,1-7.926,10.662c-2.444-3.6-2.66-8.231-3.506-12.522a6.4,6.4,0,0,0-1.056-2.755,2.353,2.353,0,0,0-2.606-.9,1.536,1.536,0,0,0-.548,2.424c-.677.813-1.943.207-2.708-.517a14.865,14.865,0,0,1-4.217-7.666c-.3-1.474-.609-3.292-2.031-3.8a3.714,3.714,0,0,0-1.5-.1c-2.965.207-7.6,1.453-10.471.5C650.452,152.733,649.342,148.766,649.342,146.224Z" transform="translate(-130.141 -128.027)"/><path class="s" d="M649.677,145.889a22,22,0,0,1,1.354-8.465,2.141,2.141,0,0,0,.352,2.755,13.616,13.616,0,0,1,4.224-7.618c-1.2.2-1.814,1.708-1.516,2.907a6.61,6.61,0,0,0,2.078,2.976,5.334,5.334,0,0,1,2.565-4.5,15.224,15.224,0,0,1,5.009-1.846,2.957,2.957,0,0,0-1.922,3.031.854.854,0,0,0,.25.585.942.942,0,0,0,.569.152,42.831,42.831,0,0,0,5.259-.117,54.211,54.211,0,0,1,6.478-.351c6.769.289,13.571,4.994,15.088,11.709a27.385,27.385,0,0,1,.494,4.945l.332,8.479a31.53,31.53,0,0,1-.3,7.411,15.675,15.675,0,0,1-7.926,10.662c-2.443-3.6-2.66-8.231-3.506-12.522a6.4,6.4,0,0,0-1.056-2.755,2.354,2.354,0,0,0-2.606-.9,1.536,1.536,0,0,0-.548,2.424c-.677.813-1.943.207-2.708-.517a14.865,14.865,0,0,1-4.217-7.666c-.3-1.474-.609-3.292-2.031-3.8a3.714,3.714,0,0,0-1.5-.1c-2.965.207-7.6,1.453-10.471.5C650.787,152.391,649.677,148.43,649.677,145.889Z" transform="translate(-130.165 -128.008)"/><path class="f" d="M613.5,216.983s-2.491,11.709,2.18,19.01l2.646-.22-1.442-18.6Z" transform="translate(-127.506 -132.752)"/><path class="r" d="M614.229,216.983s-2.491,11.709,2.18,19.01l2.647-.22-1.442-18.6Z" transform="translate(-127.559 -132.752)"/><path class="f" d="M684.719,183.117,704.8,200.7s11.832,12.357,6.85,32.317c0,0-2.18,29.149-4.67,30.416,0,0-8.718,17.743-9.341,34.535,0,0-11.676-23.921-16.969-9.347s-17.6,16.634-17.6,16.634l6.85-86.207S687.21,188.476,684.719,183.117Z" transform="translate(-131.133 -130.86)"/><path class="r" d="M685.391,183.117,705.473,200.7s11.832,12.357,6.85,32.317c0,0-2.18,29.149-4.67,30.416,0,0-8.718,17.743-9.341,34.535,0,0-12.3-25.188-17.6-10.614s-16.969,17.908-16.969,17.908l6.85-86.172S687.881,188.476,685.391,183.117Z" transform="translate(-131.182 -130.86)"/><path class="n" d="M695.921,261.747s4.982-3.485,13.077,6.02L689.071,304.52l-6.694-10.283S696.544,265.866,695.921,261.747Z" transform="translate(-132.527 -135.22)"/><path class="f" d="M691.773,263.647s11.02,12.591,15.318,10.573l3.98-9.429-14.939-6.53Z" transform="translate(-133.206 -135.06)"/><path class="r" d="M691.773,262.975s11.02,12.591,15.318,10.573l3.98-9.429-14.939-6.53Z" transform="translate(-133.206 -135.022)"/><path class="f" d="M682.956,293.651S688.2,304.589,691,305.222l-4.061,4.753-5.916-11.406Z" transform="translate(-132.429 -137.038)"/><path class="p" d="M682.619,294.008s5.246,10.938,8.041,11.571l-4.061,4.753-5.929-11.427Z" transform="translate(-132.404 -137.058)"/><path class="f" d="M693.306,222.352s.623,22.812-1.868,31.367" transform="translate(-133.181 -133.053)"/><path class="f" d="M639.085,226.788s3.736-1.267,3.736-4.436" transform="translate(-129.401 -133.053)"/><path class="j" d="M149.278,231.092s-17.748,37.359-6.092,81.572,7.953,97.117-3.669,110.2" transform="translate(-93.31 -133.541)"/><ellipse class="d" cx="4.894" cy="4.98" rx="4.894" ry="4.98" transform="translate(51.075 92.578)"/><path class="j" d="M142.109,256.342s18.4,3.375,23.291-3.444" transform="translate(-93.518 -134.76)"/><path class="j" d="M139.411,266.856s-11.067-12.46-10.458-19.933" transform="translate(-92.567 -134.426)"/><path class="j" d="M139.213,291.194s10.065,2.7,19.25-17.219" transform="translate(-93.309 -135.938)"/><path class="j" d="M140.377,308.2s-25.044-16.4-21.992-26.979" transform="translate(-91.787 -136.343)"/><path class="j" d="M146.326,327.815s17.545-15.842,15.71-31.429" transform="translate(-93.823 -137.19)"/><path class="j" d="M146.7,340.4s-22.337-6.35-21.66-16.31" transform="translate(-92.285 -138.739)"/><path class="j" d="M150.061,354.027s14.072-13.266,15.907-21.352" transform="translate(-94.093 -139.219)"/><path class="j" d="M149.947,377.652s-14.438-17.15-15.054-25.863" transform="translate(-92.997 -140.287)"/><path class="j" d="M151.119,392.622s16.157-18.266,17.375-26.979" transform="translate(-94.169 -141.061)"/><ellipse class="d" cx="4.894" cy="4.98" rx="4.894" ry="4.98" transform="translate(31.493 108.764)"/><ellipse class="d" cx="4.894" cy="4.98" rx="4.894" ry="4.98" transform="translate(25.99 180.369)"/><ellipse class="d" cx="4.894" cy="4.98" rx="4.894" ry="4.98" transform="translate(21.705 139.897)"/><ellipse class="d" cx="4.894" cy="4.98" rx="4.894" ry="4.98" transform="translate(66.988 113.124)"/><ellipse class="d" cx="4.894" cy="4.98" rx="4.894" ry="4.98" transform="translate(66.988 189.709)"/><ellipse class="d" cx="4.894" cy="4.98" rx="4.894" ry="4.98" transform="translate(59.035 133.05)"/><ellipse class="d" cx="4.894" cy="4.98" rx="4.894" ry="4.98" transform="translate(68.822 222.715)"/><ellipse class="d" cx="4.894" cy="4.98" rx="4.894" ry="4.98" transform="translate(35.777 209.635)"/><ellipse class="d" cx="4.894" cy="4.98" rx="4.894" ry="4.98" transform="translate(63.929 154.216)"/></g></g></svg>