<svg xmlns="http://www.w3.org/2000/svg" xmlns:xlink="http://www.w3.org/1999/xlink" width="601" height="577" viewBox="0 0 601 577"><defs><style>.a,.d{fill:#fff;}.a{stroke:#707070;}.b{isolation:isolate;clip-path:url(#a);}.c{fill:url(#b);}.e,.i{fill:#170e5a;}.f{fill:#bdbdbd;}.g{fill:#e0e0e0;}.h{fill:url(#c);}.i{opacity:0.1;}</style><clipPath id="a"><rect class="a" width="601" height="577" transform="translate(150 1217)"/></clipPath><linearGradient id="b" x1="0.5" y1="1.198" x2="0.5" y2="-0.168" gradientUnits="objectBoundingBox"><stop offset="0" stop-color="gray" stop-opacity="0.251"/><stop offset="0.535" stop-color="gray" stop-opacity="0.122"/><stop offset="1" stop-color="gray" stop-opacity="0.102"/></linearGradient><linearGradient id="c" x1="0.5" y1="1" x2="0.5" y2="0" xlink:href="#b"/></defs><g class="b" transform="translate(-150 -1217)"><g transform="translate(150 1262.337)"><path class="c" d="M18.059-.445l442.37-10.889c9.974-.246,17.86,8.22,17.615,18.907l-6.3,274.446c-.246,10.688-8.53,19.551-18.5,19.8L10.866,312.7c-9.974.246-17.86-8.22-17.615-18.907l6.3-274.446C-.2,8.664,8.085-.2,18.059-.445Z" transform="translate(0 153.23) rotate(-17.261)"/><path class="d" d="M18.059-.445,450.666-11.093c9.974-.246,17.86,8.22,17.615,18.907l-6.05,263.362c-.246,10.688-8.53,19.551-18.5,19.8L11.12,301.622c-9.974.246-17.86-8.22-17.615-18.907L-.445,19.352C-.2,8.664,8.085-.2,18.059-.445Z" transform="translate(7.081 154.272) rotate(-17.261)"/><path class="e" d="M0,0,468.726-11.538l-1,43.32L-1,43.32Z" transform="translate(18.019 192.557) rotate(-17.261)"/><path class="f" d="M0,0,119.093-2.932l-.43,18.733L-.43,18.733Z" transform="translate(109.847 378.846) rotate(-17.261)"/><path class="g" d="M0,0,206.5-5.083l-.43,18.733L-.43,18.733Z" transform="translate(101.161 348.443) rotate(-17.261)"/><rect class="h" width="477.506" height="315.696" rx="24.591" transform="translate(123.737 170.624)"/><rect class="d" width="465.141" height="304.223" rx="24.591" transform="translate(129.158 173.843)"/><rect class="g" width="13.553" height="41.86" transform="translate(239.772 321.53)"/><rect class="g" width="13.553" height="41.86" transform="translate(257.119 321.53)"/><rect class="g" width="13.553" height="41.86" transform="translate(274.467 321.53)"/><rect class="g" width="13.553" height="41.86" transform="translate(304.826 321.53)"/><rect class="g" width="13.553" height="41.86" transform="translate(322.174 321.53)"/><rect class="g" width="13.553" height="41.86" transform="translate(339.522 321.53)"/><rect class="g" width="13.553" height="41.86" transform="translate(369.881 321.53)"/><rect class="g" width="13.553" height="41.86" transform="translate(387.229 321.53)"/><rect class="g" width="13.553" height="41.86" transform="translate(404.577 321.53)"/><rect class="g" width="13.553" height="41.86" transform="translate(434.936 321.53)"/><rect class="g" width="13.553" height="41.86" transform="translate(452.284 321.53)"/><rect class="g" width="13.553" height="41.86" transform="translate(469.631 321.53)"/><rect class="e" width="80.808" height="48.193" transform="translate(158.751 253.546)"/><rect class="i" width="49.528" height="53.863" transform="translate(472.861 411.592)"/><rect class="i" width="49.528" height="53.863" transform="translate(497.625 411.592)"/></g></g></svg>