<svg xmlns="http://www.w3.org/2000/svg" xmlns:xlink="http://www.w3.org/1999/xlink" width="677" height="863" viewBox="0 0 677 863"><defs><style>.a,.p{fill:#fff;}.a{stroke:#707070;}.b{isolation:isolate;clip-path:url(#a);}.aa,.c{fill:url(#b);}.d{fill:#e6e8eb;}.e{fill:url(#c);}.f{fill:#361f22;}.g{fill:#1f1844;}.h{fill:url(#d);}.i{fill:url(#e);}.j{fill:url(#f);}.k{fill:url(#g);}.l{fill:url(#h);}.m{fill:url(#i);}.n{fill:url(#j);}.o{fill:url(#k);}.q{fill:url(#l);}.r{fill:url(#m);}.s{fill:#53383d;}.t{fill:url(#n);}.u{fill:url(#o);}.v{fill:url(#p);}.w,.x{fill:none;stroke:#f2f4f6;stroke-linecap:round;stroke-miterlimit:10;}.w{stroke-width:1.289px;}.aa,.w,.z{opacity:0.5;}.x{stroke-width:2.568px;opacity:0.6;}.y{fill:#d4d6d9;}.z{fill:url(#s);}.ab{fill:url(#u);}.ac{fill:url(#v);}</style><clipPath id="a"><rect class="a" width="677" height="863" transform="translate(1100 1959.46)"/></clipPath><linearGradient id="b" y1="0.5" x2="1" y2="0.5" gradientUnits="objectBoundingBox"><stop offset="0" stop-color="#f0f2f5"/><stop offset="0.99" stop-color="#f5f7f8"/></linearGradient><linearGradient id="c" x1="-0.001" y1="0.5" x2="1" y2="0.5" gradientUnits="objectBoundingBox"><stop offset="0" stop-color="#753200"/><stop offset="1" stop-color="#a04400"/></linearGradient><linearGradient id="d" x1="0.001" y1="0.501" x2="1" y2="0.501" xlink:href="#c"/><linearGradient id="e" x1="-27.685" y1="27.747" x2="-26.877" y2="27.747" xlink:href="#c"/><linearGradient id="f" x1="-4.044" y1="4.257" x2="-3.225" y2="3.946" xlink:href="#c"/><linearGradient id="g" x1="-4.165" y1="9.932" x2="-3.592" y2="9.378" gradientUnits="objectBoundingBox"><stop offset="0" stop-color="#a04400" stop-opacity="0"/><stop offset="0.18" stop-color="#9a4100" stop-opacity="0.141"/><stop offset="0.52" stop-color="#8a3b00" stop-opacity="0.522"/><stop offset="0.9" stop-color="#753200"/></linearGradient><linearGradient id="h" x1="-5.782" y1="12.594" x2="-6.556" y2="13.597" gradientUnits="objectBoundingBox"><stop offset="0" stop-color="#a04400"/><stop offset="1" stop-color="#753200"/></linearGradient><linearGradient id="i" x1="-46.109" y1="38.257" x2="-46.796" y2="38.654" xlink:href="#c"/><linearGradient id="j" x1="1.964" y1="0.486" x2="0.018" y2="0.509" gradientUnits="objectBoundingBox"><stop offset="0.09" stop-color="#3d3c99"/><stop offset="0.61" stop-color="#3d3c99"/><stop offset="1" stop-color="#201f4f"/></linearGradient><linearGradient id="k" y1="0.5" x2="1" y2="0.5" gradientUnits="objectBoundingBox"><stop offset="0" stop-color="#201f4f"/><stop offset="0.39" stop-color="#3d3c99"/><stop offset="1" stop-color="#403da0"/></linearGradient><linearGradient id="l" x1="0.001" y1="0.5" x2="1" y2="0.5" xlink:href="#b"/><linearGradient id="m" x1="1.909" y1="0.428" x2="-0.049" y2="0.534" xlink:href="#c"/><linearGradient id="n" y1="0.5" x2="1" y2="0.5" gradientUnits="objectBoundingBox"><stop offset="0" stop-color="#201f4f"/><stop offset="0.39" stop-color="#3d3c99"/></linearGradient><linearGradient id="o" x1="-1.274" y1="0.578" x2="4.822" y2="0.254" xlink:href="#k"/><radialGradient id="p" cx="0.5" cy="0.5" r="0.953" gradientUnits="objectBoundingBox"><stop offset="0.09" stop-color="#3d3c99"/><stop offset="1" stop-color="#201f4f"/></radialGradient><linearGradient id="s" x1="0.001" y1="0.5" x2="1" y2="0.5" xlink:href="#b"/><linearGradient id="u" x1="1.245" y1="0.732" x2="0.289" y2="0.309" xlink:href="#n"/><linearGradient id="v" x1="0" y1="0.499" x2="1" y2="0.499" xlink:href="#c"/></defs><g class="b" transform="translate(-1100 -1959.46)"><g transform="translate(1100 2131.872)"><path class="c" d="M693.107,354.968C634.4,247.649,466.506,90.465,248.346,90.053,20.685,89.61-1.333,291.551,121.37,347.666S64.654,473.739,192.919,544.045c129.82,71.141,407.242,64.468,475.532,9.124S718.465,401.331,693.107,354.968Z" transform="translate(-38.938 -80.92)"/><path class="d" d="M379.544,210.606h25.6V516.076H463.83V210.606h21.339L434.487,110.589Z" transform="translate(38.488 -78.81)"/><path class="e" d="M351.661,493.936c-.749.412-1.681.937-2.821,1.514-13.923,7.085-14.407-4.778-15.259-4.274l-.507-4.48,17.666.288Z" transform="translate(27.654 -40.162)"/><path class="f" d="M376.473,521.346c3.754,3,3.455,9.1-.138,12.255a14.252,14.252,0,0,1-3.881,2.533h0c-15.708-4.748-39.212-26.281-45.385-31.441.311-4.542.288-12.409,7.4-15.149,3.962,6.91,11.6,7.744,15.766,5.623,1.152-.577,2.073-1.1,2.821-1.514,2-1.03,2.729-1.246,2.729.814,0,2.832,3.363,12.585,9.512,18.537C368.378,516.032,373.076,518.627,376.473,521.346Z" transform="translate(26.254 -39.869)"/><path class="g" d="M372.981,534.554a9.086,9.086,0,0,1-5.344.525c-6.91-1.411-31.692-18.928-39-25.334-2.131-1.864-1.624-4.82-1.036-6.632C333.768,508.273,357.273,529.807,372.981,534.554Z" transform="translate(26.258 -38.475)"/><path class="f" d="M370.13,370.469v30.143l52.34-29.083v-4.088l-46,27.321Z" transform="translate(36.294 -52.416)"/><path class="h" d="M316.609,521.611c-2.891.875-5.551-5.489-8.936-6.725-1.854-.69-5.044-.628-7.52-.412l-.921-7.734,17.7-2.142,1.923,12.018S319.476,520.736,316.609,521.611Z" transform="translate(19.763 -38.322)"/><path class="g" d="M384.094,416.768l-13.347,94.848L344.03,510.03l-1.013-85.765s-10.791-79.194-19.785-77.783,8.556,188.882,8.556,188.882-5,2.709-16.813,1.74c-3.939-.329-6.91-.453-9.017-.484a6.375,6.375,0,0,1-6.4-4.964L265.686,335.308a239.509,239.509,0,0,0,16.79-22.183l30.31,3.2,8.4-26.24,13.025,26.261,35.308-7.075a77.5,77.5,0,0,0,5.839,22.656Z" transform="translate(11.942 -60.365)"/><path class="f" d="M333.268,529.756s-10.123,7.806-17.274,12.224-23.988,10.113-29.343,10.3a10.582,10.582,0,0,1-5.413-1.174,7.29,7.29,0,0,1-4.111-6.622c0-4.8,5.758-6.385,14.695-11.884,7.255-4.48,9.213-14.006,9.754-17.384a1.753,1.753,0,0,1,1.578-1.421c.6-.072,1.336-.154,2.154-.216,2.476-.216,5.666-.288,7.52.412,3.374,1.236,6.046,7.6,8.936,6.725S324,515.74,324,515.74l.956.113a5.521,5.521,0,0,1,4.606,3.491Z" transform="translate(14.609 -37.415)"/><path class="g" d="M333.269,529.335a4.608,4.608,0,0,1-1.843,5.221c-4.537,3.223-9.086,7.652-18.783,11.977-7.036,3.089-17.4,6.539-24.333,7.075a10.377,10.377,0,0,1-9.662-5.747,22.752,22.752,0,0,0,7.946,1.936c5.366-.185,21.88-4.881,29.066-9.32s17.274-12.224,17.274-12.224Z" transform="translate(14.965 -35.891)"/><path class="i" d="M330.079,128.66c1.532-2.451,3.581-9.268,4.606-11.328-4-.216-8.556,4.387-9.213,7.528C326.429,124.912,329.135,127.8,330.079,128.66Z" transform="translate(25.882 -78.118)"/><path class="j" d="M315.881,186.416c-6.406-.028-12-3.895-13.635-9.433a16.922,16.922,0,0,1-.184-4.83v-1.71l.058-1.6.069-1.967a28.383,28.383,0,0,1-3.029-.35c-7.842-1.349-20.038-6.447-23.285-18.043-2.3-8.084,1.486-15.262,1.843-19.938s-1.566-8.1-2.188-13.388c-.795-6.776,2.752-15.015,6.576-16.807,17.193-8.115,46.767,1.751,46.767,1.751s9.823,4.521,4.606,23.1c1.071-.566-1.232,3.306.207,3.09a9.758,9.758,0,0,1,7.151,1.493c3.639,2.811,3.271,9.207-4.745,17.62l-.276.3a37.7,37.7,0,0,0-.7,5.324,3.363,3.363,0,0,1-.069.824c-.23,3.3-.541,7.569-.829,11.689-.415,5.952-.507,11.1-.587,13.089C333.478,181.473,327.224,186.766,315.881,186.416Z" transform="translate(14.146 -80.396)"/><path class="k" d="M332.995,123.167c5.194-18.537-4.606-23.1-4.606-23.1s-29.573-9.866-46.767-1.751c-2.695,1.256-3.374,4.871-4.169,7.95,6.91-4.4,20.245-1.73,30.828-.865,5.067.412,2.453,5.149,3.858,5.448,11.378-1.195,18.426,4.274,15.443,18.372l5.5-2.945C331.924,126.164,334.031,122.622,332.995,123.167Z" transform="translate(14.686 -80.4)"/><path class="g" d="M346.809,119.976c.875-3.265.933-6.859.76-11.8-.357-10.648-7.071-16.271-18.621-20.308l-11.159-3.213c-1.013-.288-19.888-4.923-29.85-1.812-3.731,1.164-9.075,4.665-9.65,7.528-1.474,7.3-2.5,11.174-1.854,17.033,7.209-14.212,12.218,4.8,36.448-6.694,4.491-2.132,2.464,5.149,3.858,5.448,12.84-1.349,20.188,5.777,13.819,24.211,3.455-1.1,5.908-2.472,7.854-2.358C341.374,125.774,346.349,121.686,346.809,119.976Z" transform="translate(14.403 -81.771)"/><path class="l" d="M330.548,147.169c-7.428,10.228-19.5,17.024-33.028,18.589l.058-1.6.069-1.967a28.387,28.387,0,0,1-3.029-.35c7.174-3.635,27.155-13.954,36.932-21.091l-.276.3a37.7,37.7,0,0,0-.7,5.324A6.38,6.38,0,0,1,330.548,147.169Z" transform="translate(18.688 -75.71)"/><path class="g" d="M333.076,125.853c.461-.309,1.831-1.03,1.831-1.03l-.127-3.625-6.242,2.286a3.132,3.132,0,0,0-2.084,2.616l-.887,12.667c-8.522,2.822-28.491,11.74-31.876,11.647-4.3-.113-4.606-5-7.14-4.325s-2.764,3.532-4.318,3.254c-.806-.144-5.459-4.047-6.76-6.364,0,0,.956,8.352,1.232,9.835.633,3.44,7.025,11.328,7.025,11.328a3.842,3.842,0,0,0,2.833,1.493l10.042.68,5.539-1.864c7.658-2.317,26.648-13.388,27.132-15.334C332.075,138.025,328.47,128.973,333.076,125.853Z" transform="translate(14.224 -77.72)"/><path class="m" d="M322.933,128.983s3.029-3.326,4.848-.587-1.566,7.075-1.566,7.075Z" transform="translate(25.289 -77.091)"/><path class="f" d="M357.374,368.806l17.527-8.465-.276-24,8.925-1.534-.127,19.969,17.182-9.773a8.483,8.483,0,0,1,4.48-1.03l22.56.8L373.1,373.821H357.88Z" transform="translate(33.319 -55.769)"/><path class="n" d="M298.326,291.19c-9.213-19.33-21.581-73.685-21.581-73.685l5.551-6.735-8.326-6.385,10.019-30.957h0c5.539-.824,9.547-1.195,9.547-1.195a.635.635,0,0,1,0,.154c.138.824,4.722,4.933,5.539,11.112.449,3.223.933,6.993,1.428,11.163h0C303.117,216.074,300.745,273.662,298.326,291.19Z" transform="translate(13.874 -72.475)"/><path class="o" d="M366.34,320.36l-35.308,7.085-13.025-26.24-8.4,26.24-30.31-3.223c5.389-8.012,5.286-.165,9.432-8.795a99.339,99.339,0,0,0,7.508-20.473q.311-1.318.518-2.6c.127-.69.242-1.431.334-2.183h0c2.407-17.507,4.779-75.178,2.2-96.526l4.894,12.142,10.18,25.241,7.808-20.4L339.393,182.1c5.056,15.7,8.188,44.53,14.51,60.482.265.69.553,1.431.806,2.214C359.891,259.847,363.956,299.269,366.34,320.36Z" transform="translate(15.117 -71.461)"/><path class="g" d="M317.471,210.334l-7.808,20.391-10.18-25.231,4-20.4h5.539Z" transform="translate(19.822 -71.154)"/><path class="g" d="M312.62,180.285l-3.248,5.942h-6.345l-3.432-7.415,6.875-4.758Z" transform="translate(19.848 -72.288)"/><path class="p" d="M304.677,185.784l-4,20.391-4.906-12.142h0c-.5-4.119-.979-7.94-1.428-11.163l6.472-4.5,3.455,7.415Z" transform="translate(18.625 -71.845)"/><path class="q" d="M338.561,175.147l-3.305,2.564-16.122,7.6-3.881-3.944-6.15-6.179-6.91,4.748-6.08,7.394a81.817,81.817,0,0,1-7.808-13.872l8.994-7.611,11.643,7.322,22.076-9.742,6.426,9.969Z" transform="translate(17.216 -73.38)"/><path class="p" d="M332.878,182.693l-17.216,28.5-8.418-25.2h.38l3.248-5.942,5.355,6.993,14.66-10.659C331.427,178.1,332.084,180.263,332.878,182.693Z" transform="translate(21.632 -72.049)"/><path class="r" d="M389.681,327.088s8.879,16.673,7.819,19.268-16.387,9.268-16.387,9.268V341.743s-5.931-1.39-8.706,2.636a72.134,72.134,0,0,1,.081,7.271s-6.2-4.995-5.136-10.3a33.635,33.635,0,0,1,3.558-9.536Z" transform="translate(35.617 -56.563)"/><path class="s" d="M424.659,343.814l1.44,17.8a11,11,0,0,1-5.758,10.3L376.476,397.2l-6.345-24.294Z" transform="translate(36.294 -54.844)"/><path class="f" d="M357.785,370.186l1.935,50.359,13.29,2.832V370.186Z" transform="translate(33.415 -52.134)"/><path class="s" d="M370.13,400.231l52.352-29.082v15a6.987,6.987,0,0,1-3.224,5.736L370.13,423.227Z" transform="translate(36.294 -52.035)"/><path class="t" d="M354.08,253.069c12.541,23.305,15.385,68.329,22.848,95.908L401.78,342.8s-.944-52.068-7.313-72.686c-6.91-22.183-21.5-79.41-27.846-85.085-3.063-2.739-20.729-10.01-28.733-11.225l-5.908,75.065c-2.476,17.641,3.04,117.586,3.04,117.586l20.729-5.839c4.566-1.282,7.467-5.286,6.91-9.536C359.977,330.945,352.986,274.737,354.08,253.069Z" transform="translate(27.25 -72.314)"/><path class="u" d="M349.39,215.708l-16.341,79.843c-4.722-32.388-4.606-94.508-4.606-112.427,0-2.564-1.486-4.624-2.027-6.344l3.305-2.564-1.152-1.73c3.121.288,5.5.762,10.48,1.5l7.578,28.248-5.954,7.1Z" transform="translate(26.102 -72.449)"/><ellipse class="v" cx="3.708" cy="3.316" rx="3.708" ry="3.316" transform="translate(326.963 163.176)"/><ellipse class="v" cx="3.708" cy="3.316" rx="3.708" ry="3.316" transform="translate(327.493 181.96)"/><ellipse class="v" cx="3.708" cy="3.316" rx="3.708" ry="3.316" transform="translate(328.76 210.61)"/><path class="f" d="M386.9,392.366l-7.359,3.852V384.683l7.359-3.841Z" transform="translate(38.488 -51.039)"/><path class="f" d="M408.391,379.778l-7.359,3.841V372.1l7.359-3.852Z" transform="translate(43.498 -52.334)"/><path class="w" d="M287.035,120.92s3.236-3.244,7.14.422" transform="translate(16.92 -77.884)"/><line class="x" y1="2.832" x2="14.372" transform="translate(331.812 44.498)"/><path class="y" d="M40.549,289.328H66.16V504.965h58.686V289.328h21.339L95.5,218.713Z" transform="translate(-40.549 -67.699)"/><path class="d" d="M141.173,227.853h23.965V513.642h54.9V227.853H240l-47.423-93.581Z" transform="translate(-17.088 -76.376)"/><path class="y" d="M535.146,227.37l-68.267,96.372H498.7V504.076h72.908V323.741h26.51Z" transform="translate(58.851 -66.81)"/><ellipse class="z" cx="10.007" cy="8.949" rx="10.007" ry="8.949" transform="translate(310.254 39.709)"/><ellipse class="aa" cx="9.374" cy="8.383" rx="9.374" ry="8.383" transform="translate(285.667 39.245)"/><path class="ab" d="M287.173,217.4l5.551-6.735-8.326-6.385L294.4,173.326c-8.487,1.236-23.239,6-29.642,9.711-10.56,6.179-38.844,95.589-35.135,102.674s40.583,27.445,40.583,27.445-1.969,11.215-4.537,40.411a10.336,10.336,0,0,0,5.343,8.064,116.351,116.351,0,0,0,19.946,9.269c1.854-1.8,5.3-45.931,9.432-54.581a99.609,99.609,0,0,0,7.5-20.473q.311-1.313.518-2.6c.127-.7.23-1.431.334-2.183h0C299.541,271.748,287.173,217.4,287.173,217.4Zm-24.3,58.907,11.24-26,.069,35.982Z" transform="translate(3.458 -72.363)"/><path class="ac" d="M275.35,284.414s11.067-2.132,16.261-3.45c6.4,1.751-5.758,7.353-5.758,7.353h7.336s8.729-6.519,11.9-3.347-5.217,18.063-9.512,19.845-29.942-1.6-29.942-1.6S267.024,290.614,275.35,284.414Z" transform="translate(11.929 -61.302)"/></g></g></svg>