<svg xmlns="http://www.w3.org/2000/svg" xmlns:xlink="http://www.w3.org/1999/xlink" width="884" height="596" viewBox="0 0 884 596"><defs><style>.a,.b,.j,.l{fill:#fff;}.a{stroke:#707070;}.c{clip-path:url(#a);}.d{clip-path:url(#b);}.e,.f{fill:#1a1064;}.e,.i,.t,.u{opacity:0.1;}.g{fill:#444053;}.h{fill:#d5d6db;}.j{opacity:0.3;}.k{fill:#3a3768;}.l{opacity:0.45;}.m{fill:url(#c);}.n{fill:#be6f72;}.o{fill:#3e373a;}.p{fill:#4b4b5b;}.q{opacity:0.02;}.r{fill:#e7c7ca;}.s{fill:#c3c7d9;}.u{fill:none;stroke:#000;stroke-miterlimit:10;stroke-width:0.733px;}.v{fill:#ffd037;}.w{fill:#65617d;}.x{fill:#9d9cb5;}</style><clipPath id="a"><rect class="a" width="884" height="596" transform="translate(934 331)"/></clipPath><clipPath id="b"><rect class="b" width="884" height="596" transform="translate(903 277)"/></clipPath><linearGradient id="c" x1="0.5" y1="1" x2="0.5" gradientUnits="objectBoundingBox"><stop offset="0" stop-color="gray" stop-opacity="0.251"/><stop offset="0.54" stop-color="gray" stop-opacity="0.122"/><stop offset="1" stop-color="gray" stop-opacity="0.102"/></linearGradient></defs><g class="c" transform="translate(-934 -331)"><g class="d" transform="translate(31 54)"><g transform="translate(970.159 276.994)"><path class="e" d="M504.586,132.545c-47.436-1.649-92.622-16.96-135.763-33.715s-85.871-35.32-132.171-44.2c-29.779-5.71-63.839-6.516-87.828,9.448-23.1,15.392-30.556,41.888-34.565,66.5-3.02,18.514-4.793,38,3.481,55.33,5.739,12.035,15.934,22.149,22.978,33.715,24.532,40.107,7.2,89.565-19.386,128.726C108.872,366.724,94.4,384.263,84.78,403.8s-14.072,41.961-5.658,61.912c8.348,19.789,28.233,34.624,49.767,45.069,43.749,21.219,95.282,27.287,145.569,30.725,111.282,7.615,223.151,4.317,334.727,1.019,41.294-1.224,82.764-2.463,123.383-8.847,22.56-3.547,45.846-9.169,62.227-22.758,20.786-17.246,25.939-46.454,12.013-68.076-23.373-36.273-87.953-45.281-104.312-84.215-8.986-21.424.249-45.288,13.31-65.166,28.028-42.628,75-80.03,77.479-128.756,1.7-33.473-20.889-66.983-55.806-82.822-36.6-16.66-87.359-14.549-114.346,12.929C595.324,123.134,546.466,134,504.586,132.545Z" transform="translate(-64.924 -31.824)"/><path class="f" d="M319.159,506.1,68.288,504.872,43.361,446.4,131.5,440l-15.362-64.1,174.337-22.6L123.537,295.273l14.747-3.5,268.44,43.793L391.94,435.6l-21.131,54.978Z"/><path class="f" d="M137.06,512.208s15.392-2.463,24.627,8.414c0,0-6.772,5.336-21.343-2.052Z" transform="translate(-64.924 -31.824)"/><path class="f" d="M135.447,511.967s-9.821,12.086-4.984,25.543c0,0,8-3.2,8.876-19.518Z" transform="translate(-64.924 -31.824)"/><path class="f" d="M126.623,492.1s6.157-11.3,30.784,4.515c0,0-3.284,7.593-14.16,6.978S129.5,498.048,126.623,492.1Z" transform="translate(-64.924 -31.824)"/><path class="f" d="M125.032,491.283s-12.775-1.466-14.014,27.779c0,0,8.1,1.678,13.853-7.571S128.265,497.051,125.032,491.283Z" transform="translate(-64.924 -31.824)"/><path class="f" d="M117.593,467.953s7.183-19.907,33.246-5.746c0,0-5.951,18.265-30.578,12.519Z" transform="translate(-64.924 -31.824)"/><path class="f" d="M109.589,438.2s13.545-20.112,37.556-1.466c0,0-8.414,18.881-35.5,8.619Z" transform="translate(-64.924 -31.824)"/><path class="f" d="M106.716,409.875s15.8-18.477,39.579,0c0,0-14.981,16.213-39.579,4.72Z" transform="translate(-64.924 -31.824)"/><path class="f" d="M104.254,382.368s16.007-19.291,38.787-1.026c0,0-18.06,17.034-38.787,5.541Z" transform="translate(-64.924 -31.824)"/><path class="f" d="M105.69,357.946s16.858-24.832,38.172-8c0,0-18.06,21.343-38.172,12.724Z" transform="translate(-64.924 -31.824)"/><path class="f" d="M109.589,329.42s17.854-24.627,38.582-5.746c0,0-21.138,21.343-38.582,10.261Z" transform="translate(-64.924 -31.824)"/><path class="f" d="M115.541,303.921S136.679,280.775,155.12,290c0,0-22.025,24.583-40.5,20.068Z" transform="translate(-64.924 -31.824)"/><path class="f" d="M122.929,279.749s24.392-28.35,38.582-18.881c0,0-17.972,21.988-40.312,24.187Z" transform="translate(-64.924 -31.824)"/><path class="f" d="M133.593,251.714s21.351-23.146,36.948-17.4c0,0-18.265,24.011-39.813,24.627Z" transform="translate(-64.924 -31.824)"/><path class="f" d="M143.246,225.489s23.6-22.164,33.862-18.265c0,0-17.034,24.627-34.888,23.19Z" transform="translate(-64.924 -31.824)"/><path class="f" d="M152.686,201.273S173,174.792,184.093,176.844c0,0-12.321,23.608-31.407,27.119Z" transform="translate(-64.924 -31.824)"/><path class="f" d="M162.933,168.62s17.957-20.3,27.661-20.251c0,0-14.175,27.119-28.4,26.87Z" transform="translate(-64.924 -31.824)"/><path class="f" d="M169,146.881,186.349,104.6s.865,38.216-19.555,50.118Z" transform="translate(-64.924 -31.824)"/><path class="f" d="M176.045,100.259s2.873-35.306,1.026-38.179c0,0,12.4,29.354-1.143,53.776Z" transform="translate(-64.924 -31.824)"/><path class="f" d="M116.919,467.484s-17.986-11.148-29.633,16.125c0,0,16.007,10.628,31.751-9.169Z" transform="translate(-64.924 -31.824)"/><path class="f" d="M109.01,437.06S86.949,427,76.248,455.471c0,0,17.041,11.727,34.771-11.214Z" transform="translate(-64.924 -31.824)"/><path class="f" d="M105.69,411.568s-15.8-18.477-39.579,0c0,0,14.981,16.213,39.579,4.72Z" transform="translate(-64.924 -31.824)"/><path class="f" d="M103.711,382.368S87.7,363.077,64.924,381.342c0,0,18.06,17.034,38.787,5.541Z" transform="translate(-64.924 -31.824)"/><path class="f" d="M105.69,358.65S94.461,330.835,70.054,342.8c0,0,13.193,24.663,34.639,20.471Z" transform="translate(-64.924 -31.824)"/><path class="f" d="M111,329.281s-11.159-28.3-35.91-15.181c0,0,15.157,25.939,34.815,19.548Z" transform="translate(-64.924 -31.824)"/><path class="f" d="M117.923,304.061s-4.4-31.025-24.92-33.8c0,0,4.354,32.718,22.157,39.4Z" transform="translate(-64.924 -31.824)"/><path class="f" d="M123.449,279.807s-1.715-37.38-18.683-38.685c0,0,.572,28.372,16.77,43.976Z" transform="translate(-64.924 -31.824)"/><path class="f" d="M135.352,250.666s-5.057-31.084-21.255-34.881c0,0,2.008,30.1,19.65,42.511Z" transform="translate(-64.924 -31.824)"/><path class="f" d="M145.166,225.746S145,193.364,135.1,188.608c0,0-6.135,29.318,7.2,41.272Z" transform="translate(-64.924 -31.824)"/><path class="f" d="M153.441,200.906s-1.385-33.341-11.632-38.04c0,0-3.5,26.386,10.1,40.224Z" transform="translate(-64.924 -31.824)"/><path class="f" d="M164.362,171.281s-.059-27.119-7.373-33.481c0,0-7.271,29.706,3.555,38.934Z" transform="translate(-64.924 -31.824)"/><path class="f" d="M168.144,145.547l-7.117-45.134S151.36,137.4,168.481,153.7Z" transform="translate(-64.924 -31.824)"/><path class="f" d="M169.529,100.684S151.264,70.34,151.638,66.969c0,0,1.942,31.8,24.92,47.641Z" transform="translate(-64.924 -31.824)"/><path class="f" d="M171.669,91.72s-17.239-43.1-25.037-46.586c0,0,24.627,12.519,26.474,45.354Z" transform="translate(-64.924 -31.824)"/><path class="g" d="M162.1,175.5l-1.18-.359C175.469,127.7,179.1,97.449,171.145,89.863l.843-.894C180.428,96.968,177.005,126.887,162.1,175.5Z" transform="translate(-64.924 -31.824)"/><path class="g" d="M122.042,286.58l-1.744-.623c1.547-4.346,3.21-8.759,4.955-13.1,15.187-37.849,28.116-73.06,36.4-100.09l1.517-.733c-8.3,27.082-21.006,63.641-36.207,101.542C125.23,277.836,123.574,282.226,122.042,286.58Z" transform="translate(-64.924 -31.824)"/><path class="g" d="M158.748,547.712c-.235-.256-23.813-26.811-40.253-72.143a266.922,266.922,0,0,1-15.883-82.661c-1.129-35.276,6.274-74.665,18.954-110.447l1.378,1.612c-28.467,80.308-17.158,149.124-2.155,190.565,16.264,44.922,39.579,71.183,39.806,71.447Z" transform="translate(-64.924 -31.824)"/><path class="h" d="M527.212,491.334s-16.616,20.28-3.423,50.939L391.127,599.809,378.4,602.477l-5.864-25.653,3.921-32.374V526.757Z" transform="translate(-64.924 -31.824)"/><path class="f" d="M43.361,446.4l183.616-33.473,243.3,38.758L319.159,506.1Z"/><path class="f" d="M43.361,446.4l183.616-33.473,243.3,38.758L319.159,506.1Z"/><path class="f" d="M108.285,478.222s-17.173,32.535,2.617,62.586l272.288,59s-16.9-25.917.872-61.89Z" transform="translate(-64.924 -31.824)"/><path class="i" d="M108.285,478.222s-17.173,32.535,2.617,62.586l272.288,59s-16.9-25.917.872-61.89Z" transform="translate(-64.924 -31.824)"/><path class="i" d="M116.4,489.5s-9.814,23.806,0,39.212" transform="translate(-64.924 -31.824)"/><path class="f" d="M383.189,599.809,535.2,534.944s8.5,1.832,3.005,8.062S386.12,606.039,386.12,606.039L110.9,540.808Z" transform="translate(-64.924 -31.824)"/><path class="i" d="M383.189,599.809,535.2,534.944s8.5,1.832,3.005,8.062S386.12,606.039,386.12,606.039L110.9,540.808Z" transform="translate(-64.924 -31.824)"/><path class="i" d="M370.729,544.472s-14.659,17.591,0,43.976" transform="translate(-64.924 -31.824)"/><rect class="i" width="69.314" height="0.733" transform="translate(311.024 534.286) rotate(-18.45)"/><rect class="i" width="84.457" height="0.733" transform="translate(310.999 540.187) rotate(-20.82)"/><rect class="i" width="97.891" height="0.733" transform="translate(311.44 547.143) rotate(-22.26)"/><rect class="i" width="112.682" height="0.733" transform="translate(312.497 553.276) rotate(-24.335)"/><rect class="i" width="123.244" height="0.733" transform="translate(313.312 556.261) rotate(-23.643)"/><rect class="i" width="147.482" height="0.733" transform="translate(315.016 561.273) rotate(-23.36)"/><path class="j" d="M111.576,449.982l129-27.119,78.586,15.025-105.7,34.082Z"/><path class="f" d="M535.2,483.514s6.67,2.69,2.756,6.846-153.9,47.56-153.9,47.56Z" transform="translate(-64.924 -31.824)"/><path class="h" d="M599.985,420.84s-16.608,20.273-3.415,50.939L463.908,529.315,451.176,532l-5.864-25.653,3.98-32.367V456.263Z" transform="translate(-64.924 -31.824)"/><path class="k" d="M116.142,375.9l183.609-33.466L543.058,381.2,391.94,435.6Z"/><path class="k" d="M181.036,407.728s-17.18,32.535,2.609,62.586l272.288,59s-16.894-25.939.9-61.9Z" transform="translate(-64.924 -31.824)"/><path class="i" d="M181.036,407.728s-17.18,32.535,2.609,62.586l272.288,59s-16.894-25.939.9-61.9l-86.1-18.634Z" transform="translate(-64.924 -31.824)"/><path class="i" d="M189.172,419.008s-9.807,23.8,0,39.212" transform="translate(-64.924 -31.824)"/><path class="k" d="M455.962,529.315l152.02-64.865s8.495,1.832,3,8.062S458.9,535.545,458.9,535.545L183.675,470.313Z" transform="translate(-64.924 -31.824)"/><path class="i" d="M455.962,529.315l152.02-64.865s8.495,1.832,3,8.062S458.9,535.545,458.9,535.545L183.675,470.313Z" transform="translate(-64.924 -31.824)"/><path class="i" d="M443.5,473.978s-14.659,17.591,0,43.976" transform="translate(-64.924 -31.824)"/><rect class="i" width="69.314" height="0.733" transform="translate(383.803 463.799) rotate(-18.45)"/><rect class="i" width="84.457" height="0.733" transform="translate(383.788 469.697) rotate(-20.82)"/><rect class="i" width="97.891" height="0.733" transform="translate(384.218 476.643) rotate(-22.26)"/><rect class="i" width="112.682" height="0.733" transform="translate(385.283 482.778) rotate(-24.335)"/><rect class="i" width="123.244" height="0.733" transform="translate(386.087 485.753) rotate(-23.643)"/><rect class="i" width="147.482" height="0.733" transform="translate(387.797 490.766) rotate(-23.36)"/><path class="l" d="M184.357,379.487l129-27.119,78.586,15.025-105.7,34.082Z"/><path class="k" d="M607.982,413.02s6.662,2.69,2.756,6.838-153.874,47.561-153.874,47.561Z" transform="translate(-64.924 -31.824)"/><path class="h" d="M606.875,340.194s-16.616,36.4-3.423,67.064L470.79,448.67l-12.7,2.69-5.864-25.653,3.921-32.374V375.618Z" transform="translate(-64.924 -31.824)"/><path class="f" d="M123.053,295.265,306.67,261.792,549.977,300.55,398.852,354.956Z"/><path class="f" d="M187.977,327.082s-17.2,32.535,2.587,62.586l272.288,59s-16.9-25.939.894-61.89Z" transform="translate(-64.924 -31.824)"/><path class="i" d="M187.977,327.082s-17.2,32.535,2.587,62.586l272.288,59s-16.9-25.939.894-61.89Z" transform="translate(-64.924 -31.824)"/><path class="i" d="M196.091,338.362s-9.814,23.806,0,39.212" transform="translate(-64.924 -31.824)"/><path class="f" d="M462.881,448.67l152.012-48.741s8.5,1.832,3.005,8.062S465.813,454.9,465.813,454.9L190.594,389.668Z" transform="translate(-64.924 -31.824)"/><path class="i" d="M462.881,448.67l152.012-48.741s8.5,1.832,3.005,8.062S465.813,454.9,465.813,454.9L190.594,389.668Z" transform="translate(-64.924 -31.824)"/><path class="i" d="M450.421,393.333s-14.659,17.591,0,43.976" transform="translate(-64.924 -31.824)"/><rect class="i" width="69.314" height="0.733" transform="translate(390.724 383.152) rotate(-18.45)"/><rect class="i" width="84.457" height="0.733" transform="translate(390.704 389.054) rotate(-20.82)"/><rect class="i" width="97.891" height="0.733" transform="translate(391.127 396.003) rotate(-22.26)"/><rect class="i" width="112.682" height="0.733" transform="translate(392.203 402.132) rotate(-24.335)"/><rect class="i" width="123.244" height="0.733" transform="translate(393.01 405.114) rotate(-23.643)"/><rect class="i" width="147.482" height="0.733" transform="translate(394.718 410.131) rotate(-23.36)"/><path class="j" d="M191.268,298.842l129-27.119,78.586,15.025-105.7,34.082Z"/><path class="f" d="M614.893,332.374s6.67,2.69,2.756,6.846-153.873,47.56-153.873,47.56Z" transform="translate(-64.924 -31.824)"/><path class="f" d="M292.443,109.882s-27.852-1.678-24.6,17.862a4.767,4.767,0,0,0,2.477,5.021s.051-1.466,2.858-.96a12.5,12.5,0,0,0,3.034.147,6.318,6.318,0,0,0,3.7-1.525h0s7.835-3.24,10.884-16.051c0,0,2.257-2.793,2.2-3.511l-4.72,2.008s1.605,3.394.344,6.215c0,0-.154-6.091-1.063-5.951-.183,0-2.441,1.18-2.441,1.18s2.763,5.915.674,10.21c0,0,.792-7.285-1.539-9.785l-3.313,1.935s3.232,6.105,1.041,11.089c0,0,.564-7.645-1.737-10.62l-3.005,2.345s3.042,6.017,1.187,10.151c0,0-.242-8.9-1.832-9.572,0,0-2.631,2.316-3.027,3.269,0,0,2.082,4.4.784,6.677,0,0-.784-5.929-1.466-5.959,0,0-2.617,3.929-2.888,6.6a14.263,14.263,0,0,1,2.25-6.992,7.85,7.85,0,0,0-4,2.074s.4-2.778,4.654-3.02c0,0,2.162-2.983,2.741-3.159,0,0-4.229-.359-6.787.777,0,0,2.257-2.617,7.557-1.466l2.932-2.419s-5.556-.733-7.916.081c0,0,2.719-2.316,8.715-.63l3.232-1.928s-4.742-1.019-7.564-.652c0,0,2.976-1.605,8.509.132l2.3-1.033s-3.467-.682-4.486-.792-1.07-.388-1.07-.388a12.1,12.1,0,0,1,6.523.733S292.539,110.19,292.443,109.882Z" transform="translate(-64.924 -31.824)"/><path class="e" d="M684.274,190.2s-27.852-1.678-24.6,17.862a4.767,4.767,0,0,0,2.477,5.021s.051-1.466,2.858-.96a12.916,12.916,0,0,0,3.034.147,6.3,6.3,0,0,0,3.665-1.525h0s7.842-3.24,10.884-16.051c0,0,2.257-2.792,2.2-3.511l-4.705,2.008s1.6,3.394.344,6.215c0,0-.154-6.091-1.055-5.951-.183,0-2.448,1.18-2.448,1.18s2.763,5.915.682,10.21c0,0,.792-7.285-1.546-9.785l-3.313,1.935s3.232,6.1,1.041,11.089c0,0,.564-7.645-1.737-10.62l-3,2.345s3.034,6.017,1.18,10.151c0,0-.242-8.9-1.832-9.572,0,0-2.624,2.316-3.027,3.269,0,0,2.082,4.4.792,6.677,0,0-.792-5.929-1.466-5.959,0,0-2.617,3.929-2.888,6.6a14.218,14.218,0,0,1,2.257-6.992,7.886,7.886,0,0,0-4.009,2.074s.41-2.778,4.654-3.02c0,0,2.162-2.983,2.741-3.166,0,0-4.222-.352-6.787.784,0,0,2.258-2.617,7.557-1.466l2.932-2.419s-5.563-.733-7.916.081c0,0,2.712-2.316,8.715-.63l3.225-1.928s-4.742-1.019-7.564-.652c0,0,2.976-1.6,8.509.132l2.309-1.033s-3.474-.682-4.493-.792-1.07-.388-1.07-.388a12.013,12.013,0,0,1,6.523.733S684.362,190.506,684.274,190.2Z" transform="translate(-64.924 -31.824)"/><path class="e" d="M339.352,230.6s-12.138-25.162-27.588-12.761a4.76,4.76,0,0,0-3.174,4.61s1.283-.667,2.2,2.03a12.986,12.986,0,0,0,1.349,2.712,6.325,6.325,0,0,0,3.144,2.492h0s6.648,5.263,19.32,1.671c0,0,3.54.608,4.119.183l-4.046-3.13s-2.2,3.056-5.263,3.328c0,0,5.248-3.1,4.684-3.819-.117-.147-2.2-1.561-2.2-1.561s-3.819,5.3-8.583,5.57c0,0,6.743-2.858,7.784-6.12l-3.3-1.95s-3.76,5.8-9.176,6.318c0,0,6.948-3.232,8.421-6.692l-3.5-1.466s-3.775,5.585-8.29,5.988c0,0,7.652-4.552,7.461-6.274,0,0-3.306-1.158-4.332-1.048,0,0-2.8,3.951-5.438,3.951,0,0,4.786-3.584,4.493-4.163,0,0-4.7-.366-7.183.733a14.27,14.27,0,0,1,7.2-1.466,7.894,7.894,0,0,0-3.767-2.485s2.624-1,4.9,2.587c0,0,3.665.432,4.1.85,0,0-1.752-3.855-3.987-5.534,0,0,3.386.682,4.933,5.864l3.555,1.407s-2.045-5.219-3.929-6.868c0,0,3.342,1.239,4.8,7.329l3.254,1.876s-1.415-4.64-3.115-6.919c0,0,2.851,1.818,4.031,7.491l2.03,1.51s-1.1-3.364-1.466-4.3-.183-1.129-.183-1.129a12.027,12.027,0,0,1,2.551,6.047S339.088,230.818,339.352,230.6Z" transform="translate(-64.924 -31.824)"/><path class="e" d="M620.64,154.651s-12.13-25.162-27.588-12.76a4.769,4.769,0,0,0-3.174,4.61s1.29-.66,2.2,2.03a12.712,12.712,0,0,0,1.356,2.719,6.288,6.288,0,0,0,3.137,2.485h0s6.655,5.263,19.32,1.678c0,0,3.54.6,4.126.176l-4.024-3.137s-2.2,3.064-5.255,3.335c0,0,5.241-3.108,4.676-3.826-.117-.147-2.2-1.561-2.2-1.561s-3.811,5.3-8.583,5.57c0,0,6.75-2.858,7.791-6.113l-3.35-1.935s-3.753,5.8-9.176,6.318c0,0,6.948-3.24,8.429-6.7l-3.511-1.466s-3.775,5.592-8.282,5.988c0,0,7.645-4.552,7.454-6.267,0,0-3.3-1.165-4.324-1.048,0,0-2.8,3.943-5.446,3.943,0,0,4.793-3.584,4.5-4.163,0,0-4.706-.366-7.19.733a14.263,14.263,0,0,1,7.2-1.466,7.849,7.849,0,0,0-3.76-2.485s2.624-1,4.9,2.587c0,0,3.665.44,4.1.858,0,0-1.752-3.863-3.995-5.541,0,0,3.386.689,4.933,5.9l3.562,1.407s-2.045-5.226-3.929-6.875c0,0,3.342,1.239,4.793,7.329l3.262,1.876s-1.422-4.632-3.122-6.919c0,0,2.859,1.818,4.031,7.491l2.03,1.51s-1.092-3.364-1.466-4.3-.183-1.121-.183-1.121a12.057,12.057,0,0,1,2.543,6.047S620.412,154.885,620.64,154.651Z" transform="translate(-64.924 -31.824)"/><path class="e" d="M659.4,279.111s-12.13-25.169-27.61-12.768a4.769,4.769,0,0,0-3.174,4.61s1.29-.66,2.2,2.03a12.7,12.7,0,0,0,1.349,2.719,6.289,6.289,0,0,0,3.137,2.485h0s6.655,5.27,19.328,1.678c0,0,3.533.608,4.119.176l-4.046-3.13s-2.2,3.064-5.263,3.335c0,0,5.241-3.108,4.676-3.826-.117-.147-2.2-1.561-2.2-1.561s-3.811,5.3-8.583,5.578c0,0,6.75-2.866,7.791-6.12l-3.306-1.95s-3.753,5.8-9.176,6.318c0,0,6.948-3.24,8.429-6.7l-3.511-1.466s-3.775,5.585-8.282,5.988c0,0,7.652-4.552,7.461-6.274,0,0-3.306-1.165-4.332-1.048,0,0-2.8,3.943-5.446,3.943,0,0,4.793-3.584,4.5-4.163,0,0-4.705-.366-7.19.733a14.307,14.307,0,0,1,7.212-1.466,7.836,7.836,0,0,0-3.767-2.485s2.624-1,4.9,2.587c0,0,3.665.432,4.1.85,0,0-1.752-3.855-3.987-5.541,0,0,3.386.689,4.933,5.9l3.555,1.407s-2.045-5.226-3.929-6.868c0,0,3.342,1.231,4.793,7.329l3.262,1.869s-1.422-4.632-3.122-6.919c0,0,2.858,1.818,4.039,7.5l2.03,1.466s-1.1-3.364-1.466-4.3-.183-1.121-.183-1.121a11.984,11.984,0,0,1,2.543,6.047S659.178,279.331,659.4,279.111Z" transform="translate(-64.924 -31.824)"/><ellipse class="e" cx="16.85" cy="1.884" rx="16.85" ry="1.884" transform="translate(131.167 570.976)"/><ellipse class="e" cx="16.85" cy="1.884" rx="16.85" ry="1.884" transform="translate(20.706 538.961)"/><ellipse class="e" cx="16.85" cy="1.884" rx="16.85" ry="1.884" transform="translate(215.367 592.238)"/><ellipse class="e" cx="16.85" cy="1.884" rx="16.85" ry="1.884" transform="translate(646.85 545.924)"/><ellipse class="e" cx="16.85" cy="1.884" rx="16.85" ry="1.884" transform="translate(506.631 536.784)"/><ellipse class="e" cx="19.929" cy="3.423" rx="19.929" ry="3.423" transform="translate(412.844 578.283)"/><path class="f" d="M506.587,579.126s-27.749,14.336-13.413,31.223a5.363,5.363,0,0,0,5.248,3.408s-.777-1.422,2.2-2.558a14.3,14.3,0,0,0,3-1.59,7.043,7.043,0,0,0,2.683-3.584h0s5.673-7.593,1.275-21.644c0,0,.572-3.972.073-4.617l-3.372,4.625s3.481,2.338,3.885,5.776c0,0-3.665-5.768-4.4-5.131-.161.132-1.671,2.529-1.671,2.529s6.039,4.1,6.487,9.418c0,0-3.4-7.454-7.073-8.517l-2.1,3.753s6.6,4.017,7.329,10.056c0,0-3.833-7.659-7.747-9.206l-1.546,3.965s6.362,4.046,6.948,9.074c0,0-5.321-8.407-7.234-8.143,0,0-1.2,3.723-1.041,4.874,0,0,4.493,3.005,4.574,5.959,0,0-4.148-5.241-4.786-4.9,0,0-.264,5.27,1.011,8.011a15.814,15.814,0,0,1-1.84-8.011,8.8,8.8,0,0,0-2.661,4.28s-1.2-2.9,2.741-5.563c0,0,.374-4.1.828-4.6,0,0-4.258,2.082-6.069,4.632,0,0,.667-3.8,6.443-5.7l1.466-4.017s-5.776,2.448-7.557,4.6c0,0,1.283-3.775,8.011-5.585l1.994-3.665s-5.131,1.73-7.637,3.665c0,0,1.942-3.247,8.253-4.742l1.62-2.309s-3.723,1.327-4.764,1.8-1.246.242-1.246.242a13.479,13.479,0,0,1,6.677-3.034S506.843,579.375,506.587,579.126Z" transform="translate(-64.924 -31.824)"/><path class="m" d="M588.947,308.356c-4.793-13.024-31.179-14.248-42.628-10.928-8.136,2.367-25.286,5.035-34.448,6.377l-.594-.564c1.187-.352,1.217-1.217,1.07-2.5a39.114,39.114,0,0,1,.073-5.072c5.614,1.744,10.613-2.382,10.613-2.382h0c6.6-2.932,4.823-15.48,6.083-18.91.945-2.565,1.964-17.679,2.419-25.213h.1l.051-2.529c.066-1.092.1-1.73.1-1.73s.645-18.426,1.906-22.157c1.173-3.43,2.126-20.713,2.272-23.454v-.359l-.1-1.6c.066-1.165.1-2.463.088-3.826,0-6.267-.652-14.16-.733-15.436v-.667c.051-2.675-.286-16.073-11.683-21.138-4.2-1.876-9.25-4.112-14.138-6.289-1.261-10.884-4.141-21.71-3.892-32.675,0-1.649.147-3.3.308-4.94,0,.476-.051.96-.059,1.466v3.2c.432-13.713,5.614-27.5,5.131-40.92-.044,1.312-.139,2.631-.264,3.951a42.606,42.606,0,0,0-1.407-13.479,7.976,7.976,0,0,0-2.3-4.178,9.477,9.477,0,0,0-4.017-1.59,80.78,80.78,0,0,0-10.547-1.964,16.286,16.286,0,0,0-2.375-4.61c-7.432-10.2-18.441-19.789-31.458-21.988-6.53-1.1-14.043-.183-18.485,4.486a13.867,13.867,0,0,0-1.3,1.319c-2.389,2.851-3.415,6.6-5.864,9.44-.161.191-.344.366-.52.55-4.793,4.288-12.262,5.182-17.591,9.03a21.119,21.119,0,0,0-2.631,2.294,44.62,44.62,0,0,0-5.746,6.985c-2.4,3.372-4.859,6.882-5.622,10.906-1.532,8.062,3.958,15.707,4.977,23.821,2.272,18.155-17.818,34.265-14.014,52.178a23.894,23.894,0,0,0,6.465,11.6c-7.835,7.1-14.5,13.977-14.5,13.977v.41h-1.239l.125,1.466h-.125l.682,7.952-.682,11.58v1.092h.044c.227,4.244,1.129,19.5,2.2,22.721,1.261,3.731,1.9,22.157,1.9,22.157s1.393,26.041,2.668,29.486-.535,15.956,6.083,18.91h0a13.927,13.927,0,0,0,6.648,2.756c-.337,2.741-.125,4.727.967,5.35a3.2,3.2,0,0,0,1.539.44,16.331,16.331,0,0,0-1.195,2.089,31.044,31.044,0,0,1-7.681-1.81c-7.11-2.932-30.7-9.528-37.556-4.889S334.7,307.4,342.32,326.071s11.163,19.144,11.163,19.144a27.117,27.117,0,0,1,6.091,6.12c2.287,3.438,23.593,11.3,28.922,11.3a52.183,52.183,0,0,1,6.78.337s-5.783,5.072-5.013,8.018-1.759,26.532-1.759,26.532,5.864,5.908,8.37-1.84l.088.117c.469.638,3.005,3.518,7.776-.117a43.6,43.6,0,0,1,6.2-3.929l23.1-3.269a65.384,65.384,0,0,1,7.234-.051c3.665.3,7.263-1.869,9.528-3.547,4.786,1.818,10.166,3.8,12.724,4.53,5.189,1.466,29.039,7.864,34.617,5.864a7.749,7.749,0,0,0,3-2.14l5.321.169-2.492.5s4.852.081,11.449.169l-.279.161,8.275-.073c12.108.11,25.712.147,27.5-.257,2.8-.623,17.349-.183,21.636,0h1.2s15.985-3.188,9.389-19.408c-5.072-12.46-20.662-16.081-27.581-17.078,1.95-.388,3.628-.689,4.742-.865,4.83-.733,14.212-5.131,14.974-6.633s8.627-5.864,10.657-8.348S593.763,321.38,588.947,308.356ZM456.542,344.8l-.784.257-.528.176-1.011,1c-.806-.542-1.671-1.114-2.573-1.7C453.236,344.629,454.87,344.724,456.542,344.8ZM526.4,365.459Z" transform="translate(-64.924 -31.824)"/><path class="n" d="M503.274,267.523s11.214,29.318,17.591,26.386,4.647-15.392,5.864-18.807,2.565-29.318,2.565-29.318.616-18.324,1.832-22.032c1.129-3.408,2.045-20.6,2.2-23.3v-.359l-1.209-21.255-6.846-1.708L509.4,182.994l-2.2,12.555-.858,4.9-.366,2.089Z" transform="translate(-64.924 -31.824)"/><path class="i" d="M506.968,262.613s10.7,8.759,13.926,9.528,5.2,7.6,5.2,7.6" transform="translate(-64.924 -31.824)"/><path class="n" d="M415.577,268.806s-11.214,29.318-17.591,26.386-4.647-15.392-5.864-18.807-2.565-29.318-2.565-29.318-.616-18.324-1.832-22.032c-1.129-3.408-2.045-20.6-2.2-23.3v-.359l1.217-21.255,6.846-1.708,15.875,5.864,2.2,12.555.858,4.9.366,2.089Z" transform="translate(-64.924 -31.824)"/><rect class="o" width="25.03" height="39.014" transform="translate(398.647 80.088)"/><rect class="i" width="25.03" height="39.014" transform="translate(398.647 80.088)"/><path class="p" d="M411.18,298.006s-8.553,9.4-5.38,11.111,23.7,33.715,23.7,33.715,67.431,8.3,80.147-4.156,12.46-34.719,12.46-34.719-10.217,2.2-11.331,1S503.542,298,503.542,298,417.043,292.759,411.18,298.006Z" transform="translate(-64.924 -31.824)"/><path class="q" d="M411.18,298.006s-8.553,9.4-5.38,11.111,23.7,33.715,23.7,33.715,67.431,8.3,80.147-4.156,12.46-34.719,12.46-34.719-10.217,2.2-11.331,1S503.542,298,503.542,298,417.043,292.759,411.18,298.006Z" transform="translate(-64.924 -31.824)"/><path class="n" d="M532.569,179.145l-21.988,17.591-6.648.484-2.441.176-40.992,3-42.511-3.108-6.325-.462-8.062-.586L386.744,180.12s11.932-12.782,22.384-21.409c4.119-3.408,8.011-6.164,10.848-7.249l.484-.169a12.064,12.064,0,0,0,4.647-3.24c8.253-8.509,15.883-29.508,15.883-29.508s36.4-18.806,32.01,5.864,16.367,18.573,16.367,18.573l6.846,3.122,2.7,1.239,6.9,3.159,15.56,7.139C533.581,163.263,532.569,179.145,532.569,179.145Z" transform="translate(-64.924 -31.824)"/><circle class="i" cx="32.74" cy="32.74" r="32.74" transform="translate(361.127 41.331)"/><path class="i" d="M532.621,202.468H385.527v-.359l1.217-21.255s11.932-12.782,22.384-21.409l92.351-3.665,4.3-4.53,15.56,7.139c12.218,5.614,11.236,21.5,11.236,21.5S534.241,198.29,532.621,202.468Z" transform="translate(-64.924 -31.824)"/><path class="r" d="M532.621,201.735H385.527v-.359l1.217-21.255s11.932-12.782,22.384-21.409l92.351-3.665,4.3-4.53,15.56,7.139c12.218,5.614,11.236,21.5,11.236,21.5S534.241,197.557,532.621,201.735Z" transform="translate(-64.924 -31.824)"/><path class="i" d="M435.213,142.132s23.2,29.567,54.113-.608,3.423,67.306,3.423,67.306l-66.7,7.916Z" transform="translate(-64.924 -31.824)"/><path class="r" d="M435.213,143.6s23.2,29.567,54.113-.608,3.423,67.306,3.423,67.306l-66.7,7.916Z" transform="translate(-64.924 -31.824)"/><path class="i" d="M498.876,148.787l2.455,37.446,2.631,12.46,2.008,9.528s5.131,73.294,3.665,76.959.733,6.6,1.041,8.546-.308,6.846-.066,9.044,0,3.174-5.614,2.389-13.442-2.148-13.442-2.148-19.789,1.466-26.628-.975-19.789-2.448-19.789-2.448-19.548.491-25.895-.242-9.777,7.82-13.926,5.372,4.881-26.137,7.813-32.982-3.907-24.187-3.907-24.187l8.8-48.792,1.957-11.06V152.928l.484-.169a12.064,12.064,0,0,0,4.647-3.24l2.2,34.991,68.9,2.448v-39.38" transform="translate(-64.924 -31.824)"/><path class="r" d="M498.876,147.321l2.455,37.446,2.631,12.46,2.008,9.528s5.131,73.294,3.665,76.959.733,6.6,1.041,8.546-.308,6.846-.066,9.044,0,3.174-5.614,2.389-13.442-2.148-13.442-2.148-19.789,1.466-26.628-.975-19.789-2.448-19.789-2.448-19.548.491-25.895-.242-9.777,7.82-13.926,5.372,4.881-26.137,7.813-32.982-3.907-24.187-3.907-24.187l8.8-48.792,1.957-11.06V151.462l.484-.169a12.064,12.064,0,0,0,4.647-3.24l2.2,34.991,68.9,2.448v-39.38" transform="translate(-64.924 -31.824)"/><path class="i" d="M506.8,69.175a8.076,8.076,0,0,0-2.2-4.148,9,9,0,0,0-3.87-1.583,76.461,76.461,0,0,0-10.173-1.95,16.286,16.286,0,0,0-2.2-4.566c-7.183-10.144-17.81-19.709-30.314-21.871-6.545-1.136-14.131-.117-18.324,5.043-2.3,2.836-3.291,6.6-5.614,9.382-4.478,5.409-12.563,6.076-18.206,10.261-3.012,2.2-5.2,5.387-7.329,8.48-2.309,3.35-4.684,6.838-5.416,10.84-1.466,8,3.819,15.619,4.793,23.689,2.2,18.052-17.151,34.067-13.493,51.878,2.133,10.386,11.727,17.7,21.651,21.409,3.5,1.312,7.491,2.617,9.125,5.973.733,1.466.858,3.159,1.546,4.64,2.316,4.94,9.931,5.131,14.021,1.532s5.38-9.418,5.864-14.849c1.964-23.718-7.535-47.15-6.428-70.927.33-7.19,2.353-15.348,8.8-18.6,8.671-4.4,19.1,2.932,28.643,1.532a56.825,56.825,0,0,1,2.741,34.675c-1.517,6.325-4.141,12.46-4.332,18.983-.286,9.931,5.072,19.005,9.7,27.786a14.782,14.782,0,0,1,1.957,5.358,12.914,12.914,0,0,1-1.048,5.607c-2.617,7.044-7.132,13.581-7.645,21.079a3.408,3.408,0,0,0,.55,2.507,3.152,3.152,0,0,0,1.891.85c7.916,1.356,14.761-5.658,18.624-12.7a59.544,59.544,0,0,0,7.344-25.3c.8-14.923-4.552-29.6-4.222-44.541C503.618,102.656,511.292,85.556,506.8,69.175Z" transform="translate(-64.924 -31.824)"/><path class="o" d="M507.532,68.442a8.076,8.076,0,0,0-2.2-4.148,9,9,0,0,0-3.87-1.583,76.461,76.461,0,0,0-10.173-1.95,16.286,16.286,0,0,0-2.2-4.566c-7.183-10.144-17.81-19.709-30.314-21.871-6.545-1.136-14.131-.117-18.324,5.043-2.3,2.836-3.291,6.6-5.614,9.382-4.478,5.409-12.563,6.076-18.206,10.261-3.012,2.2-5.2,5.387-7.329,8.48-2.309,3.35-4.684,6.838-5.416,10.84-1.466,8,3.819,15.619,4.793,23.689,2.2,18.052-17.151,34.067-13.493,51.878,2.133,10.386,11.727,17.7,21.651,21.409,3.5,1.312,7.491,2.617,9.125,5.973.733,1.466.858,3.159,1.546,4.64,2.316,4.94,9.931,5.131,14.021,1.532s5.38-9.418,5.864-14.849c1.964-23.718-7.535-47.15-6.428-70.927.33-7.19,2.353-15.348,8.8-18.6,8.671-4.4,19.1,2.932,28.643,1.532a56.825,56.825,0,0,1,2.741,34.675c-1.517,6.325-4.141,12.46-4.332,18.983-.286,9.931,5.072,19.005,9.7,27.786a14.785,14.785,0,0,1,1.957,5.358,12.915,12.915,0,0,1-1.048,5.607c-2.617,7.044-7.132,13.581-7.645,21.079a3.408,3.408,0,0,0,.55,2.507,3.152,3.152,0,0,0,1.891.85c7.916,1.356,14.761-5.658,18.624-12.7a59.544,59.544,0,0,0,7.344-25.3c.8-14.923-4.552-29.6-4.222-44.541C504.351,101.923,512.025,84.823,507.532,68.442Z" transform="translate(-64.924 -31.824)"/><path class="s" d="M426.418,361.142l29.076.931-4.17-21.563-22.274,2.118Z"/><path class="p" d="M581.435,341.858c-1.957,2.441-9.528,6.838-10.261,8.3s-9.77,5.864-14.417,6.6-19.3,3.914-21.988,5.622c-1.928,1.231-17.4,5.131-27.566,7.293a78.233,78.233,0,0,1-8.348,1.5c-4.4.242-52.523-16.125-52.523-16.125l9.279-9.528.513-.176c2.624-.887,14.747-4.984,21.475-6.934,7.579-2.2,16.374-11.236,16.374-11.236s12.944-4.4,14.659-4.889-4.4-17.1-4.4-17.1,28.094-3.9,39.088-7.2,36.4-2.082,41.045,10.87S583.421,339.418,581.435,341.858Z" transform="translate(-64.924 -31.824)"/><path class="r" d="M453.412,383.145s-5.614,5.864-11.236,5.38-25.279,1.466-25.279,1.466a39.41,39.41,0,0,0-9.9,5.739c-4.6,3.621-7.036.733-7.491.117l-.081-.117c-2.448,7.7-8.062,1.832-8.062,1.832s2.441-23.454,1.693-26.386,4.83-7.967,4.83-7.967l6.6-1.678,16.711-4.28,23.945,8.3Z" transform="translate(-64.924 -31.824)"/><path class="i" d="M404.451,361.53,399.5,395.847l-.081-.117c-2.448,7.7-8.062,1.832-8.062,1.832s2.441-23.454,1.693-26.386,4.83-7.967,4.83-7.967Z" transform="translate(-64.924 -31.824)"/><path class="i" d="M439.032,263.917s12.944,4.4,24.187,0" transform="translate(-64.924 -31.824)"/><path class="i" d="M483.221,272.229s5.372,2.683,9.528,0" transform="translate(-64.924 -31.824)"/><path class="i" d="M483.221,278.591s9.037,1.209,10.752-1.231" transform="translate(-64.924 -31.824)"/><path class="i" d="M480.289,292.26s16.975-2.2,21.189-5.131" transform="translate(-64.924 -31.824)"/><path class="i" d="M428.492,287.13s9.528,5.372,16.616,5.131" transform="translate(-64.924 -31.824)"/><path class="i" d="M507.2,369.673a78.24,78.24,0,0,1-8.348,1.5c-4.4.242-52.523-16.125-52.523-16.125l9.279-9.528.513-.176c1.466,1.033,2.668,1.92,3.525,2.6,4.039,3.181,7.938-.975,9.4-.975s14.168,10.5,14.168,10.5,11.727,2.69,13.684,5.131,8.8,1.957,10.012,3.665a6.538,6.538,0,0,1,.29,3.413Z" transform="translate(-64.924 -31.824)"/><path class="p" d="M416.9,306.186s-11.859.682-18.7-2.2-29.56-9.528-36.156-4.859-22.479,8.8-15.15,27.368,10.752,19.056,10.752,19.056a26.46,26.46,0,0,1,5.864,6.083c2.2,3.423,22.721,11.236,27.852,11.236s14.168,0,26.87,8.8,24.187,9.777,24.187,9.777,16.125,6.6,21.145,8.062,27.962,7.813,33.341,5.864,8.8-14.175,8.8-14.175,2.441-10.994,1.217-12.7-8.062-1.224-10.012-3.665-13.684-5.131-13.684-5.131-12.672-10.51-14.138-10.51-5.365,4.148-9.4.975a214.515,214.515,0,0,0-25.294-16.125C425.106,329.149,416.9,306.186,416.9,306.186Z" transform="translate(-64.924 -31.824)"/><path class="i" d="M393.054,313.274a14,14,0,0,1,12.013,3.174c5.864,4.889,25.594,14.7,25.594,14.7" transform="translate(-64.924 -31.824)"/><path class="i" d="M539.657,312.966s-26.144,3.958-31.025,9.33" transform="translate(-64.924 -31.824)"/><path class="r" d="M569.708,393.9h-1.151c-4.134-.147-18.14-.586-20.838,0-3.174.733-45.2,0-45.2,0l8.216-1.708s-3.049-10.686-1.114-11.573c0,0-10.994-7.241-2.7-12.13a25.716,25.716,0,0,1,17.224-2.829l20.808-7.051,3.995-1.356s23.454,1.224,29.8,17.349S569.708,393.9,569.708,393.9Z" transform="translate(-64.924 -31.824)"/><path class="i" d="M569.708,393.9h-1.151c6.824-5.629,22.259-22.765-23.608-35.254l3.995-1.356s23.454,1.224,29.8,17.349S569.708,393.9,569.708,393.9Z" transform="translate(-64.924 -31.824)"/><circle class="p" cx="1.283" cy="1.283" r="1.283" transform="translate(460.382 340.51)"/><circle class="p" cx="1.283" cy="1.283" r="1.283" transform="translate(452.928 342.628)"/><g class="t"><path d="M482.817,104.686a56.869,56.869,0,0,0-4.207-23.557c-9.528,1.422-19.965-5.929-28.643-1.532-6.421,3.254-8.436,11.412-8.8,18.6-.088,1.9-.1,3.8-.066,5.695,0-.674,0-1.356.066-2.03.337-7.19,2.353-15.348,8.8-18.6,8.678-4.4,19.1,2.932,28.643,1.532a56.717,56.717,0,0,1,4.207,19.892Z" transform="translate(-64.924 -31.824)"/><path d="M408.981,103.345a24.426,24.426,0,0,0-.1-4.793c-.777-6.45-4.3-12.614-4.94-18.9-.821,7.586,4.009,14.871,4.94,22.567a4.582,4.582,0,0,1,.1,1.126Z" transform="translate(-64.924 -31.824)"/><path d="M447.6,169.119c-.454,5.438-1.737,11.251-5.864,14.857s-11.727,3.408-14.021-1.532c-.733-1.466-.843-3.174-1.554-4.64-1.627-3.357-5.629-4.661-9.125-5.973-9.931-3.716-19.511-10.994-21.644-21.409a22.493,22.493,0,0,1-.388-2.858,23.1,23.1,0,0,0,.388,6.523c2.133,10.386,11.727,17.693,21.644,21.409,3.5,1.312,7.5,2.617,9.125,5.973.733,1.466.858,3.159,1.554,4.64,2.309,4.94,9.924,5.131,14.021,1.532s5.372-9.418,5.864-14.857a83.755,83.755,0,0,0,.227-8.6C447.827,165.843,447.732,167.484,447.6,169.119Z" transform="translate(-64.924 -31.824)"/><path d="M504.212,115.431V118.6c.41-13.633,5.409-27.339,4.918-40.686C508.749,90.262,504.491,102.883,504.212,115.431Z" transform="translate(-64.924 -31.824)"/><path d="M488.483,170.577a9.447,9.447,0,0,0,.169-2.646,14.658,14.658,0,0,0-1.957-5.358c-4.236-8.062-9.067-16.315-9.638-25.264,0,.381-.051.733-.059,1.143-.293,9.924,5.065,19.005,9.7,27.786a17.589,17.589,0,0,1,1.788,4.339Z" transform="translate(-64.924 -31.824)"/><path d="M508.426,159.972a59.64,59.64,0,0,1-7.4,25.3c-3.87,7.044-10.708,14.058-18.631,12.7a3.115,3.115,0,0,1-1.891-.858,1.832,1.832,0,0,1-.345-.572c-.088.572-.161,1.151-.205,1.737a3.379,3.379,0,0,0,.55,2.5,3.115,3.115,0,0,0,1.891.858c7.923,1.356,14.761-5.658,18.631-12.7a59.64,59.64,0,0,0,7.4-25.3q.132-2.572.044-5.131C508.456,159,508.456,159.481,508.426,159.972Z" transform="translate(-64.924 -31.824)"/></g><path class="u" d="M509.621,380.616s18.551,7.784,30.784-9.44" transform="translate(-64.924 -31.824)"/><path class="u" d="M513.271,394.22s15.15-9.851,34.448-.322" transform="translate(-64.924 -31.824)"/><path class="u" d="M411.861,391.984s6.362-14.351,23.351-3.408" transform="translate(-64.924 -31.824)"/><path class="i" d="M391.236,179.754l12.973-11.727s50.3-3.3,52.383,13.8c0,0,17.832-20.273,55.337-15.758L527.8,178.706l-43.859,19.247L441.32,212.736l-31.392-14.05Z" transform="translate(-64.924 -31.824)"/><path class="h" d="M391.236,180.487,404.21,168.76s50.3-3.3,52.383,13.8c0,0,17.832-20.273,55.337-15.758l15.87,12.637-43.859,19.247L441.32,213.469l-31.392-14.05Z" transform="translate(-64.924 -31.824)"/><path class="i" d="M320.574,150.128l5.739,68.655,60.834,3.056-2.639-68.361-.051-1.151Z"/><path class="f" d="M320.574,148.662l5.739,68.655,60.834,3.056-2.639-68.361-.051-1.151Z"/><path class="i" d="M465.659,148.662,402.9,158.073v68.962l61.325-8.861Z"/><path class="f" d="M465.659,147.2,402.9,156.607V225.57l61.325-8.861Z"/><path class="j" d="M450.861,164.025l-33.9,3.767.74,11.551,33.136-3.621Z"/><path class="n" d="M394.535,285.906l3.452,9.286s5.131,4.4,10.745,2.2,10.51-3.291,12.951-5.431,5.864-12.892,5.864-12.892,3.423-11.727,6.838-14.659,12.46-43.324,0-39.374-21.988,40.6-21.988,40.6a8.69,8.69,0,0,1-5.372,2.932c-3.174.249-9.528-.491-10.752,2.2S390.87,280.533,394.535,285.906Z" transform="translate(-64.924 -31.824)"/><path class="i" d="M467.829,189.89a21.109,21.109,0,0,1-18.4-4.588l2.646,68.354s6.23,6.743,15.758,5.2Z" transform="translate(-64.924 -31.824)"/><path class="f" d="M467.829,188.424a21.109,21.109,0,0,1-18.4-4.588l2.646,68.354s6.23,6.743,15.758,5.2Z" transform="translate(-64.924 -31.824)"/><path class="i" d="M467.829,188.424a21.109,21.109,0,0,1-18.4-4.588l2.646,68.354s6.23,6.743,15.758,5.2Z" transform="translate(-64.924 -31.824)"/><path class="i" d="M469.3,180.721s25.528-7.806,32.183-6.706" transform="translate(-64.924 -31.824)"/><path class="i" d="M440.739,177.313s-24.744-5.864-28.878-4.2" transform="translate(-64.924 -31.824)"/><path class="i" d="M485.39,181.7s17.07-6.259,23.242-3.284" transform="translate(-64.924 -31.824)"/><path class="i" d="M476.793,338.714a56.112,56.112,0,0,1,8.414-5.226,137.264,137.264,0,0,0,12.46-7.615" transform="translate(-64.924 -31.824)"/><path class="i" d="M411.861,263.917s-10.708,8.759-13.926,9.528-5.2,7.6-5.2,7.6" transform="translate(-64.924 -31.824)"/><path class="n" d="M524.287,284.6l-3.416,9.308s-5.131,4.4-10.752,2.2-10.5-3.291-12.951-5.431-5.864-12.892-5.864-12.892-3.415-11.727-6.838-14.659-12.46-43.324,0-39.374,21.988,40.6,21.988,40.6a8.69,8.69,0,0,0,5.372,2.932c3.174.249,9.528-.491,10.752,2.2S527.952,279.25,524.287,284.6Z" transform="translate(-64.924 -31.824)"/><path class="i" d="M518.3,267.479s7,4.5,6.97,9.88" transform="translate(-64.924 -31.824)"/><circle class="n" cx="32.74" cy="32.74" r="32.74" transform="translate(361.245 39.725)"/><path class="o" d="M438.35,95.5c3.973-.623,7.454-2.932,11.251-4.258,8.495-2.983,17.891-.938,26.488,1.752,3.3,1.033,6.648,2.2,10.107,2.2s7.132-1.415,8.9-4.4c1.627-2.741,1.312-6.3-.059-9.184a25.865,25.865,0,0,0-5.981-7.381c-7.623-7.2-17.078-13.926-27.537-13.193a37.9,37.9,0,0,0-12.1,3.467,133.4,133.4,0,0,0-14.2,7.153c-3.525,2.045-10.056,4.779-12.086,8.517C418.509,88.6,431.167,96.631,438.35,95.5Z" transform="translate(-64.924 -31.824)"/><path class="i" d="M495.094,87.718c-1.766,2.983-5.438,4.4-8.9,4.4S479.385,91,476.079,89.963c-8.6-2.69-17.986-4.742-26.488-1.752-3.789,1.327-7.278,3.665-11.251,4.251-5.79.909-15.113-4.134-16.125-10.547-1.136,7.41,9.675,13.757,16.125,12.746,3.973-.623,7.461-2.932,11.251-4.251,8.5-2.99,17.891-.938,26.488,1.752,3.306,1.033,6.648,2.2,10.115,2.155s7.132-1.407,8.9-4.4a8.583,8.583,0,0,0,1.026-5.358A7.9,7.9,0,0,1,495.094,87.718Z" transform="translate(-64.924 -31.824)"/><path class="f" d="M760.793,484.936s4.346,5.68-2.008,14.263-11.588,15.824-9.477,21.175c0,0,9.587-15.934,17.385-16.161S769.361,494.515,760.793,484.936Z" transform="translate(-64.924 -31.824)"/><path class="i" d="M760.793,484.936a7.036,7.036,0,0,1,.887,1.781c7.608,8.942,11.668,17.29,4.346,17.5-6.816.2-14.989,12.387-16.946,15.458a7.215,7.215,0,0,0,.227.733s9.587-15.934,17.385-16.161S769.361,494.515,760.793,484.936Z" transform="translate(-64.924 -31.824)"/><path class="v" d="M768.855,492.177c0,2-.227,3.621-.5,3.621s-.506-1.62-.506-3.621.279-1.055.557-1.055S768.855,490.176,768.855,492.177Z" transform="translate(-64.924 -31.824)"/><path class="v" d="M771.633,494.567c-1.752.953-3.284,1.532-3.416,1.29s1.18-1.217,2.932-2.2,1.063-.264,1.2,0S773.392,493.606,771.633,494.567Z" transform="translate(-64.924 -31.824)"/><path class="f" d="M737.822,484.936s-4.346,5.68,2.008,14.263,11.588,15.824,9.47,21.175c0,0-9.58-15.934-17.385-16.161S729.276,494.515,737.822,484.936Z" transform="translate(-64.924 -31.824)"/><path class="i" d="M737.822,484.936a7.039,7.039,0,0,0-.887,1.781c-7.608,8.942-11.668,17.29-4.346,17.5,6.809.2,14.989,12.387,16.946,15.458a5.669,5.669,0,0,1-.235.733s-9.579-15.934-17.385-16.161S729.276,494.515,737.822,484.936Z" transform="translate(-64.924 -31.824)"/><path class="v" d="M729.745,492.177c0,2,.22,3.621.5,3.621s.506-1.62.506-3.621-.286-1.055-.557-1.055S729.745,490.176,729.745,492.177Z" transform="translate(-64.924 -31.824)"/><path class="v" d="M726.975,494.567c1.752.953,3.284,1.532,3.415,1.29s-1.18-1.217-2.932-2.2-1.063-.264-1.2,0S725.216,493.606,726.975,494.567Z" transform="translate(-64.924 -31.824)"/><ellipse class="e" cx="45.442" cy="6.97" rx="45.442" ry="6.97" transform="translate(638.941 518.087)"/><path class="w" d="M772.7,512.714l-.22,1.774-.308,2.507-.125,1.048-.308,2.507-.139,1.05-.3,2.5-3.482,28.511c-.308,2.543-4.464,4.53-9.484,4.53H740.27c-5.021,0-9.169-1.986-9.484-4.53L727.3,524.1l-.3-2.5-.125-1.048-.308-2.507L726.435,517l-.3-2.507-.22-1.774c-.169-1.466,2.074-2.653,4.918-2.653h36.955C770.621,510.061,772.871,511.27,772.7,512.714Z" transform="translate(-64.924 -31.824)"/><path class="x" d="M707.552,482.664l-.3,2.507H661.516l-.308-2.507Z"/><path class="x" d="M707.119,486.218l-.3,2.507H661.948l-.308-2.507Z"/><path class="x" d="M706.687,489.773l-.308,2.507h-44l-.3-2.507Z"/></g></g></g></svg>